LisuBosaMaster-ExtraLight.ufo
<glyph name="exclam" format="2">
  <advance width="273"/>
  <unicode hex="0021"/>
  <outline>
    <contour>
      <point x="136" y="-8" type="curve" smooth="yes"/>
      <point x="166" y="-8"/>
      <point x="187" y="15"/>
      <point x="187" y="41" type="curve" smooth="yes"/>
      <point x="187" y="70"/>
      <point x="166" y="92"/>
      <point x="136" y="92" type="curve" smooth="yes"/>
      <point x="106" y="92"/>
      <point x="86" y="70"/>
      <point x="86" y="41" type="curve" smooth="yes"/>
      <point x="86" y="15"/>
      <point x="106" y="-8"/>
    </contour>
    <contour>
      <point x="97" y="562" type="line"/>
      <point x="175" y="562" type="line"/>
      <point x="166" y="177" type="line"/>
      <point x="108" y="177" type="line"/>
    </contour>
  </outline>
</glyph>
<glyph name="quotedbl" format="2">
  <advance width="335"/>
  <unicode hex="0022"/>
  <outline>
    <contour>
      <point x="55" y="582" type="line"/>
      <point x="125" y="582" type="line"/>
      <point x="114" y="379" type="line"/>
      <point x="66" y="379" type="line"/>
    </contour>
    <contour>
      <point x="209" y="582" type="line"/>
      <point x="280" y="582" type="line"/>
      <point x="268" y="379" type="line"/>
      <point x="220" y="379" type="line"/>
    </contour>
  </outline>
</glyph>
<glyph name="numbersign" format="2">
  <advance width="432"/>
  <unicode hex="0023"/>
  <outline>
    <contour>
      <point x="264" y="215" type="line"/>
      <point x="285" y="328" type="line"/>
      <point x="172" y="328" type="line"/>
      <point x="151" y="215" type="line"/>
    </contour>
    <contour>
      <point x="411" y="215" type="line"/>
      <point x="411" y="164" type="line"/>
      <point x="306" y="164" type="line"/>
      <point x="275" y="-4" type="line"/>
      <point x="223" y="-4" type="line"/>
      <point x="254" y="164" type="line"/>
      <point x="140" y="164" type="line"/>
      <point x="110" y="-4" type="line"/>
      <point x="57" y="-4" type="line"/>
      <point x="89" y="164" type="line"/>
      <point x="21" y="164" type="line"/>
      <point x="21" y="215" type="line"/>
      <point x="99" y="215" type="line"/>
      <point x="120" y="328" type="line"/>
      <point x="21" y="328" type="line"/>
      <point x="21" y="379" type="line"/>
      <point x="129" y="379" type="line"/>
      <point x="159" y="542" type="line"/>
      <point x="211" y="542" type="line"/>
      <point x="181" y="379" type="line"/>
      <point x="295" y="379" type="line"/>
      <point x="325" y="542" type="line"/>
      <point x="377" y="542" type="line"/>
      <point x="347" y="379" type="line"/>
      <point x="411" y="379" type="line"/>
      <point x="411" y="328" type="line"/>
      <point x="337" y="328" type="line"/>
      <point x="317" y="215" type="line"/>
    </contour>
  </outline>
</glyph>
<glyph name="dollar" format="2">
  <advance width="457"/>
  <unicode hex="0024"/>
  <outline>
    <contour>
      <point x="228" y="35" type="curve" smooth="yes"/>
      <point x="192" y="35"/>
      <point x="150" y="39"/>
      <point x="108" y="56" type="curve"/>
      <point x="157" y="23" type="line"/>
      <point x="141" y="93" type="line" smooth="yes"/>
      <point x="130" y="141"/>
      <point x="110" y="153"/>
      <point x="88" y="153" type="curve" smooth="yes"/>
      <point x="68" y="153"/>
      <point x="55" y="143"/>
      <point x="46" y="125" type="curve"/>
      <point x="50" y="45"/>
      <point x="125" y="-8"/>
      <point x="223" y="-8" type="curve" smooth="yes"/>
      <point x="348" y="-8"/>
      <point x="424" y="60"/>
      <point x="424" y="159" type="curve" smooth="yes"/>
      <point x="424" y="229"/>
      <point x="386" y="281"/>
      <point x="262" y="324" type="curve" smooth="yes"/>
      <point x="227" y="336" type="line" smooth="yes"/>
      <point x="161" y="359"/>
      <point x="125" y="385"/>
      <point x="125" y="439" type="curve" smooth="yes"/>
      <point x="125" y="508"/>
      <point x="177" y="542"/>
      <point x="245" y="542" type="curve" smooth="yes"/>
      <point x="273" y="542"/>
      <point x="306" y="537"/>
      <point x="345" y="521" type="curve"/>
      <point x="297" y="555" type="line"/>
      <point x="312" y="485" type="line" smooth="yes"/>
      <point x="322" y="437"/>
      <point x="346" y="424"/>
      <point x="367" y="424" type="curve" smooth="yes"/>
      <point x="384" y="424"/>
      <point x="400" y="433"/>
      <point x="407" y="452" type="curve"/>
      <point x="402" y="532"/>
      <point x="328" y="587"/>
      <point x="235" y="587" type="curve" smooth="yes"/>
      <point x="129" y="587"/>
      <point x="53" y="513"/>
      <point x="53" y="419" type="curve" smooth="yes"/>
      <point x="53" y="332"/>
      <point x="110" y="288"/>
      <point x="207" y="254" type="curve" smooth="yes"/>
      <point x="241" y="242" type="line" smooth="yes"/>
      <point x="319" y="214"/>
      <point x="352" y="194"/>
      <point x="352" y="141" type="curve" smooth="yes"/>
      <point x="352" y="73"/>
      <point x="303" y="35"/>
    </contour>
    <contour>
      <point x="258" y="296" type="line"/>
      <point x="258" y="670" type="line"/>
      <point x="219" y="670" type="line"/>
      <point x="219" y="296" type="line"/>
    </contour>
    <contour>
      <point x="216" y="-85" type="line"/>
      <point x="255" y="-85" type="line"/>
      <point x="255" y="296" type="line"/>
      <point x="216" y="296" type="line"/>
    </contour>
  </outline>
</glyph>
<glyph name="quotesingle" format="2">
  <advance width="185"/>
  <unicode hex="0027"/>
  <outline>
    <contour>
      <point x="55" y="577" type="line"/>
      <point x="130" y="577" type="line"/>
      <point x="119" y="364" type="line"/>
      <point x="66" y="364" type="line"/>
    </contour>
  </outline>
</glyph>
<glyph name="parenleft" format="2">
  <advance width="288"/>
  <unicode hex="0028"/>
  <outline>
    <contour>
      <point x="257" y="-107" type="curve"/>
      <point x="257" y="-162" type="line"/>
      <point x="86" y="-71"/>
      <point x="36" y="47"/>
      <point x="36" y="258" type="curve" smooth="yes"/>
      <point x="36" y="467"/>
      <point x="86" y="589"/>
      <point x="257" y="677" type="curve"/>
      <point x="257" y="622" type="line"/>
      <point x="133" y="552"/>
      <point x="123" y="415"/>
      <point x="123" y="258" type="curve" smooth="yes"/>
      <point x="123" y="100"/>
      <point x="133" y="-37"/>
    </contour>
  </outline>
</glyph>
<glyph name="asterisk" format="2">
  <advance width="410"/>
  <unicode hex="002A"/>
  <outline>
    <contour>
      <point x="213" y="394" type="line"/>
      <point x="213" y="377" type="line"/>
      <point x="366" y="426" type="line"/>
      <point x="339" y="485" type="line"/>
      <point x="186" y="393" type="line"/>
      <point x="219" y="371" type="line"/>
      <point x="239" y="542" type="line"/>
      <point x="173" y="542" type="line"/>
      <point x="191" y="371" type="line"/>
      <point x="223" y="392" type="line"/>
      <point x="71" y="487" type="line"/>
      <point x="45" y="427" type="line"/>
      <point x="197" y="377" type="line"/>
      <point x="197" y="395" type="line"/>
      <point x="45" y="346" type="line"/>
      <point x="71" y="286" type="line"/>
      <point x="223" y="382" type="line"/>
      <point x="191" y="403" type="line"/>
      <point x="173" y="231" type="line"/>
      <point x="239" y="231" type="line"/>
      <point x="219" y="402" type="line"/>
      <point x="186" y="380" type="line"/>
      <point x="339" y="288" type="line"/>
      <point x="366" y="347" type="line"/>
    </contour>
  </outline>
</glyph>
<glyph name="comma" format="2">
  <advance width="242"/>
  <unicode hex="002C"/>
  <outline>
    <contour>
      <point x="49" y="-138" type="line"/>
      <point x="145" y="-118"/>
      <point x="189" y="-52"/>
      <point x="189" y="24" type="curve" smooth="yes"/>
      <point x="189" y="73"/>
      <point x="161" y="109"/>
      <point x="117" y="109" type="curve" smooth="yes"/>
      <point x="77" y="109"/>
      <point x="51" y="83"/>
      <point x="51" y="46" type="curve" smooth="yes"/>
      <point x="51" y="16"/>
      <point x="76" y="-8"/>
      <point x="102" y="-8" type="curve" smooth="yes"/>
      <point x="125" y="-8"/>
      <point x="150" y="10"/>
      <point x="150" y="33" type="curve"/>
      <point x="145" y="33"/>
      <point x="133" y="33"/>
      <point x="126" y="33" type="curve"/>
      <point x="130" y="24"/>
      <point x="130" y="11"/>
      <point x="130" y="-15" type="curve" smooth="yes"/>
      <point x="130" y="-52"/>
      <point x="99" y="-101"/>
      <point x="43" y="-112" type="curve"/>
    </contour>
  </outline>
</glyph>
<glyph name="hyphen" format="2">
  <advance width="414"/>
  <unicode hex="002D"/>
  <outline>
    <contour>
      <point x="68" y="218" type="line"/>
      <point x="346" y="218" type="line"/>
      <point x="346" y="282" type="line"/>
      <point x="68" y="282" type="line"/>
    </contour>
  </outline>
</glyph>
<glyph name="period" format="2">
  <advance width="205"/>
  <unicode hex="002E"/>
  <outline>
    <contour>
      <point x="103" y="-8" type="curve" smooth="yes"/>
      <point x="138" y="-8"/>
      <point x="167" y="20"/>
      <point x="167" y="55" type="curve" smooth="yes"/>
      <point x="167" y="91"/>
      <point x="138" y="120"/>
      <point x="103" y="120" type="curve" smooth="yes"/>
      <point x="67" y="120"/>
      <point x="38" y="91"/>
      <point x="38" y="55" type="curve" smooth="yes"/>
      <point x="38" y="20"/>
      <point x="67" y="-8"/>
    </contour>
  </outline>
</glyph>
<glyph name="slash" format="2">
  <advance width="278"/>
  <unicode hex="002F"/>
  <outline>
    <contour>
      <point x="242" y="650" type="line"/>
      <point x="296" y="650" type="line"/>
      <point x="37" y="-100" type="line"/>
      <point x="-18" y="-100" type="line"/>
    </contour>
  </outline>
</glyph>
<glyph name="zero" format="2">
  <advance width="434"/>
  <unicode hex="0030"/>
  <outline>
    <contour>
      <point x="218" y="-8" type="curve" smooth="yes"/>
      <point x="344" y="-8"/>
      <point x="394" y="126"/>
      <point x="394" y="266" type="curve" smooth="yes"/>
      <point x="394" y="409"/>
      <point x="344" y="539"/>
      <point x="217" y="539" type="curve" smooth="yes"/>
      <point x="91" y="539"/>
      <point x="40" y="403"/>
      <point x="40" y="265" type="curve" smooth="yes"/>
      <point x="40" y="130"/>
      <point x="89" y="-8"/>
    </contour>
    <contour>
      <point x="217" y="67" type="curve" smooth="yes"/>
      <point x="154" y="67"/>
      <point x="117" y="130"/>
      <point x="117" y="265" type="curve" smooth="yes"/>
      <point x="117" y="400"/>
      <point x="153" y="463"/>
      <point x="216" y="463" type="curve" smooth="yes"/>
      <point x="281" y="463"/>
      <point x="318" y="400"/>
      <point x="318" y="265" type="curve" smooth="yes"/>
      <point x="318" y="130"/>
      <point x="281" y="67"/>
    </contour>
  </outline>
</glyph>
<glyph name="one" format="2">
  <advance width="434"/>
  <unicode hex="0031"/>
  <outline>
    <contour>
      <point x="290" y="2" type="line"/>
      <point x="214" y="2" type="line"/>
      <point x="214" y="396" type="line"/>
      <point x="175" y="363"/>
      <point x="135" y="338"/>
      <point x="94" y="321" type="curve"/>
      <point x="94" y="399" type="line"/>
      <point x="161" y="434"/>
      <point x="206" y="478"/>
      <point x="228" y="531" type="curve"/>
      <point x="290" y="531" type="line"/>
    </contour>
  </outline>
</glyph>
<glyph name="two" format="2">
  <advance width="434"/>
  <unicode hex="0032"/>
  <outline>
    <contour>
      <point x="386" y="0" type="line"/>
      <point x="47" y="0" type="line"/>
      <point x="47" y="40" type="line" smooth="yes"/>
      <point x="47" y="72"/>
      <point x="81" y="119"/>
      <point x="120" y="155" type="curve" smooth="yes"/>
      <point x="148" y="181"/>
      <point x="188" y="216"/>
      <point x="244" y="268" type="curve" smooth="yes"/>
      <point x="290" y="311"/>
      <point x="314" y="351"/>
      <point x="314" y="388" type="curve" smooth="yes"/>
      <point x="314" y="442"/>
      <point x="271" y="477"/>
      <point x="219" y="477" type="curve" smooth="yes"/>
      <point x="165" y="477"/>
      <point x="119" y="441"/>
      <point x="113" y="377" type="curve"/>
      <point x="49" y="383" type="line"/>
      <point x="58" y="478"/>
      <point x="131" y="538"/>
      <point x="220" y="538" type="curve" smooth="yes"/>
      <point x="307" y="538"/>
      <point x="378" y="481"/>
      <point x="378" y="392" type="curve" smooth="yes"/>
      <point x="378" y="340"/>
      <point x="357" y="294"/>
      <point x="318" y="253" type="curve" smooth="yes"/>
      <point x="301" y="236"/>
      <point x="262" y="201"/>
      <point x="204" y="146" type="curve" smooth="yes"/>
      <point x="180" y="123"/>
      <point x="137" y="85"/>
      <point x="126" y="62" type="curve"/>
      <point x="386" y="62" type="line"/>
    </contour>
  </outline>
</glyph>
<glyph name="three" format="2">
  <advance width="434"/>
  <unicode hex="0033"/>
  <outline>
    <contour>
      <point x="386" y="163" type="curve" smooth="yes"/>
      <point x="386" y="66"/>
      <point x="310" y="-7"/>
      <point x="213" y="-7" type="curve" smooth="yes"/>
      <point x="125" y="-7"/>
      <point x="57" y="53"/>
      <point x="48" y="148" type="curve"/>
      <point x="117" y="159" type="line"/>
      <point x="122" y="94"/>
      <point x="157" y="57"/>
      <point x="213" y="57" type="curve" smooth="yes"/>
      <point x="274" y="57"/>
      <point x="318" y="102"/>
      <point x="318" y="160" type="curve" smooth="yes"/>
      <point x="318" y="211"/>
      <point x="279" y="251"/>
      <point x="217" y="251" type="curve" smooth="yes"/>
      <point x="211" y="251"/>
      <point x="182" y="250"/>
      <point x="176" y="249" type="curve"/>
      <point x="176" y="306" type="line"/>
      <point x="185" y="305"/>
      <point x="201" y="305"/>
      <point x="207" y="305" type="curve" smooth="yes"/>
      <point x="265" y="305"/>
      <point x="295" y="346"/>
      <point x="295" y="396" type="curve" smooth="yes"/>
      <point x="295" y="441"/>
      <point x="260" y="472"/>
      <point x="207" y="472" type="curve" smooth="yes"/>
      <point x="152" y="472"/>
      <point x="126" y="435"/>
      <point x="114" y="384" type="curve"/>
      <point x="49" y="394" type="line"/>
      <point x="65" y="477"/>
      <point x="127" y="537"/>
      <point x="210" y="537" type="curve" smooth="yes"/>
      <point x="292" y="537"/>
      <point x="362" y="476"/>
      <point x="362" y="394" type="curve" smooth="yes"/>
      <point x="362" y="353"/>
      <point x="343" y="317"/>
      <point x="306" y="287" type="curve"/>
      <point x="359" y="258"/>
      <point x="386" y="216"/>
    </contour>
  </outline>
</glyph>
<glyph name="four" format="2">
  <advance width="434"/>
  <unicode hex="0034"/>
  <outline>
    <contour>
      <point x="406" y="126" type="line"/>
      <point x="340" y="126" type="line"/>
      <point x="340" y="0" type="line"/>
      <point x="278" y="0" type="line"/>
      <point x="278" y="126" type="line"/>
      <point x="32" y="126" type="line"/>
      <point x="32" y="192" type="line"/>
      <point x="276" y="531" type="line"/>
      <point x="340" y="531" type="line"/>
      <point x="340" y="188" type="line"/>
      <point x="406" y="188" type="line"/>
    </contour>
    <contour>
      <point x="278" y="153" type="line"/>
      <point x="278" y="445" type="line"/>
      <point x="280" y="436" type="line"/>
      <point x="81" y="162" type="line"/>
      <point x="76" y="188" type="line"/>
      <point x="313" y="188" type="line"/>
    </contour>
  </outline>
</glyph>
<glyph name="five" format="2">
  <advance width="434"/>
  <unicode hex="0035"/>
  <outline>
    <contour>
      <point x="390" y="179" type="curve" smooth="yes"/>
      <point x="390" y="71"/>
      <point x="317" y="-8"/>
      <point x="215" y="-8" type="curve" smooth="yes"/>
      <point x="150" y="-8"/>
      <point x="90" y="31"/>
      <point x="57" y="108" type="curve"/>
      <point x="122" y="128" type="line"/>
      <point x="138" y="82"/>
      <point x="182" y="54"/>
      <point x="221" y="54" type="curve" smooth="yes"/>
      <point x="283" y="54"/>
      <point x="324" y="108"/>
      <point x="324" y="174" type="curve" smooth="yes"/>
      <point x="324" y="247"/>
      <point x="292" y="295"/>
      <point x="227" y="295" type="curve" smooth="yes"/>
      <point x="191" y="295"/>
      <point x="160" y="279"/>
      <point x="130" y="242" type="curve"/>
      <point x="65" y="253" type="line"/>
      <point x="115" y="531" type="line"/>
      <point x="371" y="531" type="line"/>
      <point x="371" y="464" type="line"/>
      <point x="169" y="464" type="line"/>
      <point x="143" y="328" type="line"/>
      <point x="168" y="347"/>
      <point x="201" y="360"/>
      <point x="234" y="360" type="curve" smooth="yes"/>
      <point x="331" y="360"/>
      <point x="390" y="278"/>
    </contour>
  </outline>
</glyph>
<glyph name="six" format="2">
  <advance width="434"/>
  <unicode hex="0036"/>
  <outline>
    <contour>
      <point x="391" y="164" type="curve" smooth="yes"/>
      <point x="391" y="63"/>
      <point x="316" y="-8"/>
      <point x="220" y="-8" type="curve" smooth="yes"/>
      <point x="102" y="-8"/>
      <point x="47" y="91"/>
      <point x="47" y="237" type="curve" smooth="yes"/>
      <point x="47" y="409"/>
      <point x="99" y="538"/>
      <point x="233" y="538" type="curve" smooth="yes"/>
      <point x="306" y="538"/>
      <point x="363" y="494"/>
      <point x="383" y="422" type="curve"/>
      <point x="314" y="402" type="line"/>
      <point x="305" y="438"/>
      <point x="279" y="473"/>
      <point x="233" y="473" type="curve" smooth="yes"/>
      <point x="165" y="473"/>
      <point x="124" y="417"/>
      <point x="117" y="280" type="curve"/>
      <point x="138" y="309"/>
      <point x="181" y="336"/>
      <point x="230" y="336" type="curve" smooth="yes"/>
      <point x="327" y="336"/>
      <point x="391" y="263"/>
    </contour>
    <contour>
      <point x="324" y="166" type="curve" smooth="yes"/>
      <point x="324" y="229"/>
      <point x="286" y="272"/>
      <point x="225" y="272" type="curve" smooth="yes"/>
      <point x="173" y="272"/>
      <point x="123" y="234"/>
      <point x="123" y="164" type="curve" smooth="yes"/>
      <point x="123" y="98"/>
      <point x="172" y="55"/>
      <point x="223" y="55" type="curve" smooth="yes"/>
      <point x="277" y="55"/>
      <point x="324" y="102"/>
    </contour>
  </outline>
</glyph>
<glyph name="seven" format="2">
  <advance width="434"/>
  <unicode hex="0037"/>
  <outline>
    <contour>
      <point x="388" y="475" type="line"/>
      <point x="275" y="332"/>
      <point x="212" y="172"/>
      <point x="198" y="0" type="curve"/>
      <point x="135" y="0" type="line"/>
      <point x="146" y="171"/>
      <point x="211" y="336"/>
      <point x="307" y="467" type="curve"/>
      <point x="58" y="467" type="line"/>
      <point x="58" y="531" type="line"/>
      <point x="388" y="531" type="line"/>
    </contour>
  </outline>
</glyph>
<glyph name="eight" format="2">
  <advance width="434"/>
  <unicode hex="0038"/>
  <outline>
    <contour>
      <point x="389" y="146" type="curve" smooth="yes"/>
      <point x="389" y="57"/>
      <point x="309" y="-8"/>
      <point x="217" y="-8" type="curve" smooth="yes"/>
      <point x="127" y="-8"/>
      <point x="45" y="57"/>
      <point x="45" y="148" type="curve" smooth="yes"/>
      <point x="45" y="213"/>
      <point x="82" y="259"/>
      <point x="135" y="287" type="curve"/>
      <point x="97" y="309"/>
      <point x="67" y="346"/>
      <point x="67" y="398" type="curve" smooth="yes"/>
      <point x="67" y="479"/>
      <point x="135" y="538"/>
      <point x="216" y="538" type="curve" smooth="yes"/>
      <point x="300" y="538"/>
      <point x="368" y="479"/>
      <point x="368" y="396" type="curve" smooth="yes"/>
      <point x="368" y="349"/>
      <point x="338" y="314"/>
      <point x="301" y="286" type="curve"/>
      <point x="352" y="259"/>
      <point x="389" y="211"/>
    </contour>
    <contour>
      <point x="301" y="396" type="curve" smooth="yes"/>
      <point x="301" y="442"/>
      <point x="270" y="478"/>
      <point x="217" y="478" type="curve" smooth="yes"/>
      <point x="164" y="478"/>
      <point x="132" y="442"/>
      <point x="132" y="396" type="curve" smooth="yes"/>
      <point x="132" y="351"/>
      <point x="165" y="314"/>
      <point x="215" y="314" type="curve" smooth="yes"/>
      <point x="268" y="314"/>
      <point x="301" y="348"/>
    </contour>
    <contour>
      <point x="322" y="149" type="curve" smooth="yes"/>
      <point x="322" y="209"/>
      <point x="281" y="254"/>
      <point x="216" y="254" type="curve" smooth="yes"/>
      <point x="153" y="254"/>
      <point x="111" y="209"/>
      <point x="111" y="151" type="curve" smooth="yes"/>
      <point x="111" y="97"/>
      <point x="155" y="52"/>
      <point x="218" y="52" type="curve" smooth="yes"/>
      <point x="279" y="52"/>
      <point x="322" y="97"/>
    </contour>
  </outline>
</glyph>
<glyph name="semicolon" format="2">
  <advance width="276"/>
  <unicode hex="003B"/>
  <outline>
    <contour>
      <point x="138" y="322" type="curve" smooth="yes"/>
      <point x="173" y="322"/>
      <point x="202" y="352"/>
      <point x="202" y="387" type="curve" smooth="yes"/>
      <point x="202" y="423"/>
      <point x="173" y="452"/>
      <point x="138" y="452" type="curve" smooth="yes"/>
      <point x="102" y="452"/>
      <point x="73" y="423"/>
      <point x="73" y="387" type="curve" smooth="yes"/>
      <point x="73" y="352"/>
      <point x="102" y="322"/>
    </contour>
    <contour>
      <point x="195" y="24" type="curve" smooth="yes"/>
      <point x="195" y="46"/>
      <point x="191" y="68"/>
      <point x="184" y="91" type="curve"/>
      <point x="161" y="112"/>
      <point x="144" y="117"/>
      <point x="127" y="117" type="curve" smooth="yes"/>
      <point x="91" y="117"/>
      <point x="72" y="92"/>
      <point x="72" y="60" type="curve" smooth="yes"/>
      <point x="72" y="38"/>
      <point x="82" y="14"/>
      <point x="106" y="-4" type="curve" smooth="yes"/>
      <point x="150" y="-39" type="line"/>
      <point x="148" y="0" type="line"/>
      <point x="132" y="-89"/>
      <point x="77" y="-140"/>
      <point x="4" y="-176" type="curve"/>
      <point x="17" y="-207" type="line"/>
      <point x="105" y="-173"/>
      <point x="195" y="-85"/>
    </contour>
  </outline>
</glyph>
<glyph name="question" format="2">
  <advance width="386"/>
  <unicode hex="003F"/>
  <outline>
    <contour>
      <point x="326" y="454" type="curve" smooth="yes"/>
      <point x="326" y="518"/>
      <point x="271" y="570"/>
      <point x="182" y="570" type="curve" smooth="yes"/>
      <point x="108" y="570"/>
      <point x="40" y="538"/>
      <point x="30" y="449" type="curve"/>
      <point x="94" y="449" type="line"/>
      <point x="101" y="491"/>
      <point x="134" y="506"/>
      <point x="182" y="506" type="curve" smooth="yes"/>
      <point x="234" y="506"/>
      <point x="258" y="482"/>
      <point x="258" y="446" type="curve" smooth="yes"/>
      <point x="258" y="412"/>
      <point x="239" y="380"/>
      <point x="202" y="343" type="curve" smooth="yes"/>
      <point x="155" y="296"/>
      <point x="122" y="262"/>
      <point x="122" y="205" type="curve" smooth="yes"/>
      <point x="122" y="187" type="line"/>
      <point x="190" y="187" type="line"/>
      <point x="190" y="205" type="line" smooth="yes"/>
      <point x="190" y="241"/>
      <point x="212" y="264"/>
      <point x="254" y="304" type="curve" smooth="yes"/>
      <point x="297" y="344"/>
      <point x="326" y="388"/>
    </contour>
    <contour>
      <point x="156" y="-11" type="curve" smooth="yes"/>
      <point x="191" y="-11"/>
      <point x="220" y="17"/>
      <point x="220" y="52" type="curve" smooth="yes"/>
      <point x="220" y="88"/>
      <point x="191" y="117"/>
      <point x="156" y="117" type="curve" smooth="yes"/>
      <point x="120" y="117"/>
      <point x="91" y="88"/>
      <point x="91" y="52" type="curve" smooth="yes"/>
      <point x="91" y="17"/>
      <point x="120" y="-11"/>
    </contour>
  </outline>
</glyph>
<glyph name="A" format="2">
  <advance width="609"/>
  <unicode hex="0041"/>
  <anchor x="295" y="635" name="aboveUC"/>
  <anchor x="287" y="-20" name="belowLC"/>
  <anchor x="502" y="0" name="ogonek"/>
  <outline>
    <contour>
      <point x="4" y="0" type="line"/>
      <point x="216" y="0" type="line"/>
      <point x="216" y="36" type="line"/>
      <point x="115" y="50" type="line"/>
      <point x="96" y="50" type="line"/>
      <point x="4" y="36" type="line"/>
    </contour>
    <contour>
      <point x="65" y="0" type="line"/>
      <point x="108" y="0" type="line"/>
      <point x="285" y="519" type="line"/>
      <point x="460" y="0" type="line"/>
      <point x="545" y="0" type="line"/>
      <point x="333" y="621" type="line"/>
      <point x="278" y="621" type="line"/>
    </contour>
    <contour>
      <point x="156" y="201" type="line"/>
      <point x="434" y="201" type="line"/>
      <point x="419" y="243" type="line"/>
      <point x="171" y="243" type="line"/>
    </contour>
    <contour>
      <point x="352" y="0" type="line"/>
      <point x="600" y="0" type="line"/>
      <point x="600" y="36" type="line"/>
      <point x="486" y="50" type="line"/>
      <point x="468" y="50" type="line"/>
      <point x="352" y="36" type="line"/>
    </contour>
  </outline>
</glyph>
<glyph name="B" format="2">
  <advance width="577"/>
  <unicode hex="0042"/>
  <anchor x="276" y="635" name="aboveUC"/>
  <anchor x="303" y="-20" name="belowLC"/>
  <outline>
    <contour>
      <point x="41" y="0" type="line"/>
      <point x="170" y="0" type="line"/>
      <point x="170" y="50" type="line"/>
      <point x="161" y="50" type="line"/>
      <point x="41" y="36" type="line"/>
    </contour>
    <contour>
      <point x="128" y="188"/>
      <point x="128" y="92"/>
      <point x="126" y="0" type="curve"/>
      <point x="214" y="0" type="line"/>
      <point x="211" y="94"/>
      <point x="211" y="190"/>
      <point x="211" y="299" type="curve" smooth="yes"/>
      <point x="211" y="331" type="line" smooth="yes"/>
      <point x="211" y="427"/>
      <point x="211" y="523"/>
      <point x="214" y="616" type="curve"/>
      <point x="126" y="616" type="line"/>
      <point x="128" y="521"/>
      <point x="128" y="425"/>
      <point x="128" y="331" type="curve" smooth="yes"/>
      <point x="128" y="285" type="line" smooth="yes"/>
    </contour>
    <contour>
      <point x="170" y="0" type="line"/>
      <point x="293" y="0" type="line" smooth="yes"/>
      <point x="467" y="0"/>
      <point x="536" y="84"/>
      <point x="536" y="168" type="curve" smooth="yes"/>
      <point x="536" y="247"/>
      <point x="477" y="311"/>
      <point x="333" y="323" type="curve"/>
      <point x="333" y="315" type="line"/>
      <point x="456" y="330"/>
      <point x="506" y="393"/>
      <point x="506" y="465" type="curve" smooth="yes"/>
      <point x="506" y="553"/>
      <point x="432" y="616"/>
      <point x="306" y="616" type="curve" smooth="yes"/>
      <point x="170" y="616" type="line"/>
      <point x="170" y="574" type="line"/>
      <point x="279" y="574" type="line" smooth="yes"/>
      <point x="374" y="574"/>
      <point x="423" y="544"/>
      <point x="423" y="460" type="curve" smooth="yes"/>
      <point x="423" y="375"/>
      <point x="374" y="339"/>
      <point x="261" y="339" type="curve" smooth="yes"/>
      <point x="170" y="339" type="line"/>
      <point x="170" y="297" type="line"/>
      <point x="264" y="297" type="line" smooth="yes"/>
      <point x="392" y="297"/>
      <point x="448" y="253"/>
      <point x="448" y="168" type="curve" smooth="yes"/>
      <point x="448" y="87"/>
      <point x="391" y="42"/>
      <point x="271" y="42" type="curve" smooth="yes"/>
      <point x="170" y="42" type="line"/>
    </contour>
    <contour>
      <point x="41" y="579" type="line"/>
      <point x="161" y="565" type="line"/>
      <point x="170" y="565" type="line"/>
      <point x="170" y="616" type="line"/>
      <point x="41" y="616" type="line"/>
    </contour>
  </outline>
</glyph>
<glyph name="H" format="2">
  <advance width="726"/>
  <unicode hex="0048"/>
  <anchor x="363" y="635" name="aboveUC"/>
  <anchor x="363" y="-20" name="belowLC"/>
  <outline>
    <contour>
      <point x="41" y="0" type="line"/>
      <point x="299" y="0" type="line"/>
      <point x="299" y="36" type="line"/>
      <point x="179" y="50" type="line"/>
      <point x="161" y="50" type="line"/>
      <point x="41" y="36" type="line"/>
    </contour>
    <contour>
      <point x="128" y="188"/>
      <point x="128" y="92"/>
      <point x="126" y="0" type="curve"/>
      <point x="214" y="0" type="line"/>
      <point x="211" y="94"/>
      <point x="211" y="190"/>
      <point x="211" y="303" type="curve" smooth="yes"/>
      <point x="211" y="331" type="line" smooth="yes"/>
      <point x="211" y="427"/>
      <point x="211" y="523"/>
      <point x="214" y="616" type="curve"/>
      <point x="126" y="616" type="line"/>
      <point x="128" y="521"/>
      <point x="128" y="425"/>
      <point x="128" y="331" type="curve" smooth="yes"/>
      <point x="128" y="285" type="line" smooth="yes"/>
    </contour>
    <contour>
      <point x="170" y="294" type="line"/>
      <point x="556" y="294" type="line"/>
      <point x="556" y="336" type="line"/>
      <point x="170" y="336" type="line"/>
    </contour>
    <contour>
      <point x="427" y="0" type="line"/>
      <point x="685" y="0" type="line"/>
      <point x="685" y="36" type="line"/>
      <point x="565" y="50" type="line"/>
      <point x="547" y="50" type="line"/>
      <point x="427" y="36" type="line"/>
    </contour>
    <contour>
      <point x="515" y="188"/>
      <point x="515" y="92"/>
      <point x="512" y="0" type="curve"/>
      <point x="600" y="0" type="line"/>
      <point x="598" y="94"/>
      <point x="598" y="190"/>
      <point x="598" y="285" type="curve" smooth="yes"/>
      <point x="598" y="331" type="line" smooth="yes"/>
      <point x="598" y="427"/>
      <point x="598" y="523"/>
      <point x="600" y="616" type="curve"/>
      <point x="512" y="616" type="line"/>
      <point x="515" y="521"/>
      <point x="515" y="425"/>
      <point x="515" y="331" type="curve" smooth="yes"/>
      <point x="515" y="303" type="line" smooth="yes"/>
    </contour>
    <contour>
      <point x="41" y="579" type="line"/>
      <point x="161" y="565" type="line"/>
      <point x="179" y="565" type="line"/>
      <point x="299" y="579" type="line"/>
      <point x="299" y="616" type="line"/>
      <point x="41" y="616" type="line"/>
    </contour>
    <contour>
      <point x="427" y="579" type="line"/>
      <point x="547" y="565" type="line"/>
      <point x="565" y="565" type="line"/>
      <point x="685" y="579" type="line"/>
      <point x="685" y="616" type="line"/>
      <point x="427" y="616" type="line"/>
    </contour>
  </outline>
</glyph>
<glyph name="P" format="2">
  <advance width="540"/>
  <unicode hex="0050"/>
  <anchor x="269" y="635" name="aboveUC"/>
  <anchor x="169" y="-20" name="belowLC"/>
  <outline>
    <contour>
      <point x="41" y="0" type="line"/>
      <point x="299" y="0" type="line"/>
      <point x="299" y="36" type="line"/>
      <point x="179" y="50" type="line"/>
      <point x="161" y="50" type="line"/>
      <point x="41" y="36" type="line"/>
    </contour>
    <contour>
      <point x="128" y="188"/>
      <point x="128" y="92"/>
      <point x="126" y="0" type="curve"/>
      <point x="214" y="0" type="line"/>
      <point x="211" y="94"/>
      <point x="211" y="181"/>
      <point x="211" y="275" type="curve" smooth="yes"/>
      <point x="211" y="331" type="line" smooth="yes"/>
      <point x="211" y="427"/>
      <point x="211" y="523"/>
      <point x="214" y="616" type="curve"/>
      <point x="126" y="616" type="line"/>
      <point x="128" y="521"/>
      <point x="128" y="425"/>
      <point x="128" y="331" type="curve" smooth="yes"/>
      <point x="128" y="285" type="line" smooth="yes"/>
    </contour>
    <contour>
      <point x="170" y="243" type="line"/>
      <point x="261" y="243" type="line" smooth="yes"/>
      <point x="448" y="243"/>
      <point x="519" y="330"/>
      <point x="519" y="433" type="curve" smooth="yes"/>
      <point x="519" y="540"/>
      <point x="441" y="616"/>
      <point x="288" y="616" type="curve" smooth="yes"/>
      <point x="170" y="616" type="line"/>
      <point x="170" y="574" type="line"/>
      <point x="271" y="574" type="line" smooth="yes"/>
      <point x="382" y="574"/>
      <point x="432" y="522"/>
      <point x="432" y="433" type="curve" smooth="yes"/>
      <point x="432" y="345"/>
      <point x="388" y="286"/>
      <point x="275" y="286" type="curve" smooth="yes"/>
      <point x="170" y="286" type="line"/>
    </contour>
    <contour>
      <point x="41" y="579" type="line"/>
      <point x="161" y="565" type="line"/>
      <point x="170" y="565" type="line"/>
      <point x="170" y="616" type="line"/>
      <point x="41" y="616" type="line"/>
    </contour>
  </outline>
</glyph>
<glyph name="Q" format="2">
  <advance width="650"/>
  <unicode hex="0051"/>
  <anchor x="324" y="635" name="aboveUC"/>
  <anchor x="324" y="-20" name="belowLC"/>
  <anchor x="464" y="605" name="hornLC"/>
  <anchor x="408" y="0" name="ogonek"/>
  <outline>
    <contour>
      <point x="460" y="-199" type="curve" smooth="yes"/>
      <point x="497" y="-199"/>
      <point x="540" y="-190"/>
      <point x="573" y="-170" type="curve"/>
      <point x="563" y="-138" type="line"/>
      <point x="533" y="-146"/>
      <point x="509" y="-149"/>
      <point x="491" y="-149" type="curve" smooth="yes"/>
      <point x="406" y="-149"/>
      <point x="356" y="-90"/>
      <point x="362" y="14" type="curve"/>
      <point x="279" y="28" type="line"/>
      <point x="279" y="-5" type="line" smooth="yes"/>
      <point x="279" y="-108"/>
      <point x="344" y="-199"/>
    </contour>
    <contour>
      <point x="325" y="-13" type="curve" smooth="yes"/>
      <point x="468" y="-13"/>
      <point x="606" y="106"/>
      <point x="606" y="308" type="curve" smooth="yes"/>
      <point x="606" y="517"/>
      <point x="467" y="630"/>
      <point x="325" y="630" type="curve" smooth="yes"/>
      <point x="184" y="630"/>
      <point x="44" y="509"/>
      <point x="44" y="308" type="curve" smooth="yes"/>
      <point x="44" y="98"/>
      <point x="183" y="-13"/>
    </contour>
    <contour>
      <point x="325" y="32" type="curve" smooth="yes"/>
      <point x="195" y="32"/>
      <point x="140" y="170"/>
      <point x="140" y="308" type="curve" smooth="yes"/>
      <point x="140" y="446"/>
      <point x="195" y="584"/>
      <point x="325" y="584" type="curve" smooth="yes"/>
      <point x="455" y="584"/>
      <point x="509" y="446"/>
      <point x="509" y="308" type="curve" smooth="yes"/>
      <point x="509" y="170"/>
      <point x="455" y="32"/>
    </contour>
  </outline>
</glyph>
<glyph name="T" format="2">
  <advance width="553"/>
  <unicode hex="0054"/>
  <anchor x="276" y="635" name="aboveUC"/>
  <anchor x="276" y="0" name="baseLC"/>
  <anchor x="276" y="-20" name="belowLC"/>
  <outline>
    <contour>
      <point x="138" y="0" type="line"/>
      <point x="414" y="0" type="line"/>
      <point x="414" y="36" type="line"/>
      <point x="286" y="50" type="line"/>
      <point x="267" y="50" type="line"/>
      <point x="138" y="36" type="line"/>
    </contour>
    <contour>
      <point x="235" y="188"/>
      <point x="235" y="92"/>
      <point x="232" y="0" type="curve"/>
      <point x="321" y="0" type="line"/>
      <point x="318" y="94"/>
      <point x="318" y="190"/>
      <point x="318" y="285" type="curve" smooth="yes"/>
      <point x="318" y="331" type="line" smooth="yes"/>
      <point x="318" y="427"/>
      <point x="318" y="523"/>
      <point x="321" y="616" type="curve"/>
      <point x="232" y="616" type="line"/>
      <point x="235" y="521"/>
      <point x="235" y="425"/>
      <point x="235" y="331" type="curve" smooth="yes"/>
      <point x="235" y="285" type="line" smooth="yes"/>
    </contour>
    <contour>
      <point x="18" y="452" type="line"/>
      <point x="69" y="452" type="line"/>
      <point x="99" y="616" type="line"/>
      <point x="57" y="570" type="line"/>
      <point x="495" y="570" type="line"/>
      <point x="454" y="616" type="line"/>
      <point x="483" y="452" type="line"/>
      <point x="535" y="452" type="line"/>
      <point x="528" y="616" type="line"/>
      <point x="25" y="616" type="line"/>
    </contour>
  </outline>
</glyph>
<glyph name="bracketleft" format="2">
  <advance width="289"/>
  <unicode hex="005B"/>
  <outline>
    <contour>
      <point x="62" y="667" type="line"/>
      <point x="62" y="-129" type="line"/>
      <point x="254" y="-129" type="line"/>
      <point x="254" y="-69" type="line"/>
      <point x="135" y="-69" type="line"/>
      <point x="135" y="609" type="line"/>
      <point x="254" y="609" type="line"/>
      <point x="254" y="667" type="line"/>
    </contour>
  </outline>
</glyph>
<glyph name="bracketright" format="2">
  <advance width="275"/>
  <unicode hex="005D"/>
  <outline>
    <contour>
      <point x="213" y="647" type="line"/>
      <point x="213" y="-129" type="line"/>
      <point x="21" y="-129" type="line"/>
      <point x="21" y="-69" type="line"/>
      <point x="140" y="-69" type="line"/>
      <point x="140" y="589" type="line"/>
      <point x="21" y="589" type="line"/>
      <point x="21" y="647" type="line"/>
    </contour>
  </outline>
</glyph>
<glyph name="c" format="2">
  <advance width="447"/>
  <unicode hex="0063"/>
  <anchor x="251" y="465" name="aboveLC"/>
  <anchor x="253" y="0" name="baseLC"/>
  <anchor x="253" y="-20" name="belowLC"/>
  <outline>
    <contour>
      <point x="39" y="76"/>
      <point x="118" y="-11"/>
      <point x="244" y="-11" type="curve" smooth="yes"/>
      <point x="331" y="-11"/>
      <point x="390" y="30"/>
      <point x="414" y="106" type="curve"/>
      <point x="392" y="117" type="line"/>
      <point x="364" y="71"/>
      <point x="317" y="46"/>
      <point x="264" y="46" type="curve" smooth="yes"/>
      <point x="177" y="46"/>
      <point x="115" y="109"/>
      <point x="115" y="225" type="curve" smooth="yes"/>
      <point x="115" y="343"/>
      <point x="172" y="406"/>
      <point x="253" y="406" type="curve" smooth="yes"/>
      <point x="278" y="406"/>
      <point x="310" y="400"/>
      <point x="341" y="383" type="curve"/>
      <point x="299" y="417" type="line"/>
      <point x="322" y="336" type="line" smooth="yes"/>
      <point x="328" y="313"/>
      <point x="340" y="295"/>
      <point x="370" y="295" type="curve" smooth="yes"/>
      <point x="393" y="295"/>
      <point x="407" y="306"/>
      <point x="412" y="329" type="curve"/>
      <point x="400" y="397"/>
      <point x="332" y="448"/>
      <point x="250" y="448" type="curve" smooth="yes"/>
      <point x="140" y="448"/>
      <point x="39" y="361"/>
      <point x="39" y="217" type="curve" smooth="yes"/>
    </contour>
  </outline>
</glyph>
<glyph name="d" format="2">
  <advance width="519"/>
  <unicode hex="0064"/>
  <anchor x="364" y="679" name="aboveLC"/>
  <anchor x="263" y="-20" name="belowLC"/>
  <outline>
    <contour>
      <point x="42" y="80"/>
      <point x="117" y="-11"/>
      <point x="230" y="-11" type="curve" smooth="yes"/>
      <point x="294" y="-11"/>
      <point x="336" y="18"/>
      <point x="369" y="70" type="curve"/>
      <point x="379" y="70" type="line"/>
      <point x="371" y="113" type="line"/>
      <point x="329" y="58"/>
      <point x="297" y="38"/>
      <point x="250" y="38" type="curve" smooth="yes"/>
      <point x="175" y="38"/>
      <point x="120" y="93"/>
      <point x="120" y="216" type="curve" smooth="yes"/>
      <point x="120" y="342"/>
      <point x="180" y="397"/>
      <point x="249" y="397" type="curve" smooth="yes"/>
      <point x="284" y="397"/>
      <point x="321" y="382"/>
      <point x="374" y="331" type="curve"/>
      <point x="383" y="374" type="line"/>
      <point x="369" y="374" type="line"/>
      <point x="326" y="430"/>
      <point x="285" y="448"/>
      <point x="238" y="448" type="curve" smooth="yes"/>
      <point x="125" y="448"/>
      <point x="42" y="354"/>
      <point x="42" y="214" type="curve" smooth="yes"/>
    </contour>
    <contour>
      <point x="365" y="-9" type="line"/>
      <point x="506" y="0" type="line"/>
      <point x="506" y="32" type="line"/>
      <point x="429" y="44" type="line"/>
      <point x="429" y="542" type="line"/>
      <point x="433" y="673" type="line"/>
      <point x="420" y="680" type="line"/>
      <point x="279" y="639" type="line"/>
      <point x="279" y="607" type="line"/>
      <point x="358" y="598" type="line"/>
      <point x="358" y="366" type="line"/>
      <point x="356" y="354" type="line"/>
      <point x="356" y="84" type="line"/>
    </contour>
  </outline>
</glyph>
<glyph name="i" format="2">
  <advance width="273"/>
  <unicode hex="0069"/>
  <anchor x="139" y="649" name="aboveLC"/>
  <anchor x="142" y="-20" name="belowLC"/>
  <anchor x="171" y="0" name="ogonek"/>
  <outline>
    <contour>
      <point x="32" y="0" type="line"/>
      <point x="243" y="0" type="line"/>
      <point x="243" y="32" type="line"/>
      <point x="151" y="50" type="line"/>
      <point x="133" y="50" type="line"/>
      <point x="32" y="32" type="line"/>
    </contour>
    <contour>
      <point x="104" y="136"/>
      <point x="103" y="41"/>
      <point x="102" y="0" type="curve"/>
      <point x="179" y="0" type="line"/>
      <point x="177" y="41"/>
      <point x="176" y="136"/>
      <point x="176" y="193" type="curve" smooth="yes"/>
      <point x="176" y="314" type="line"/>
      <point x="179" y="438" type="line"/>
      <point x="165" y="448" type="line"/>
      <point x="26" y="392" type="line"/>
      <point x="26" y="360" type="line"/>
      <point x="102" y="352" type="line"/>
      <point x="103" y="315"/>
      <point x="104" y="287"/>
      <point x="104" y="236" type="curve" smooth="yes"/>
      <point x="104" y="193" type="line" smooth="yes"/>
    </contour>
    <contour>
      <point x="139" y="552" type="curve" smooth="yes"/>
      <point x="173" y="552"/>
      <point x="200" y="575"/>
      <point x="200" y="609" type="curve" smooth="yes"/>
      <point x="200" y="644"/>
      <point x="173" y="667"/>
      <point x="139" y="667" type="curve" smooth="yes"/>
      <point x="105" y="667"/>
      <point x="79" y="644"/>
      <point x="79" y="609" type="curve" smooth="yes"/>
      <point x="79" y="575"/>
      <point x="105" y="552"/>
    </contour>
  </outline>
</glyph>
<glyph name="k" format="2">
  <advance width="500"/>
  <unicode hex="006B"/>
  <anchor x="137" y="679" name="aboveLC"/>
  <anchor x="281" y="-20" name="belowLC"/>
  <outline>
    <contour>
      <point x="23" y="0" type="line"/>
      <point x="249" y="0" type="line"/>
      <point x="249" y="32" type="line"/>
      <point x="145" y="50" type="line"/>
      <point x="126" y="50" type="line"/>
      <point x="23" y="32" type="line"/>
    </contour>
    <contour>
      <point x="99" y="128"/>
      <point x="98" y="64"/>
      <point x="96" y="0" type="curve"/>
      <point x="175" y="0" type="line"/>
      <point x="173" y="64"/>
      <point x="172" y="128"/>
      <point x="172" y="193" type="curve" smooth="yes"/>
      <point x="172" y="542" type="line"/>
      <point x="176" y="673" type="line"/>
      <point x="163" y="680" type="line"/>
      <point x="23" y="639" type="line"/>
      <point x="23" y="607" type="line"/>
      <point x="99" y="598" type="line"/>
      <point x="99" y="193" type="line" smooth="yes"/>
    </contour>
    <contour>
      <point x="136" y="126" type="line"/>
      <point x="437" y="436" type="line"/>
      <point x="380" y="436" type="line"/>
      <point x="136" y="180" type="line"/>
    </contour>
    <contour>
      <point x="379" y="0" type="line"/>
      <point x="500" y="0" type="line"/>
      <point x="500" y="32" type="line"/>
      <point x="439" y="43" type="line"/>
      <point x="276" y="298" type="line"/>
      <point x="225" y="244" type="line"/>
    </contour>
    <contour>
      <point x="262" y="401" type="line"/>
      <point x="346" y="379" type="line"/>
      <point x="374" y="385" type="line"/>
      <point x="476" y="401" type="line"/>
      <point x="476" y="436" type="line"/>
      <point x="263" y="436" type="line"/>
    </contour>
  </outline>
</glyph>
<glyph name="m" format="2">
  <advance width="828"/>
  <unicode hex="006D"/>
  <anchor x="414" y="465" name="aboveLC"/>
  <anchor x="422" y="-20" name="belowLC"/>
  <outline>
    <contour>
      <point x="657" y="0" type="curve"/>
      <point x="736" y="0" type="line"/>
      <point x="735" y="41"/>
      <point x="734" y="134"/>
      <point x="734" y="193" type="curve" smooth="yes"/>
      <point x="734" y="287" type="line" smooth="yes"/>
      <point x="734" y="402"/>
      <point x="690" y="448"/>
      <point x="617" y="448" type="curve" smooth="yes"/>
      <point x="552" y="448"/>
      <point x="486" y="414"/>
      <point x="438" y="348" type="curve"/>
      <point x="432" y="348" type="line"/>
      <point x="450" y="320" type="line"/>
      <point x="502" y="367"/>
      <point x="540" y="383"/>
      <point x="582" y="383" type="curve" smooth="yes"/>
      <point x="636" y="383"/>
      <point x="660" y="358"/>
      <point x="660" y="272" type="curve" smooth="yes"/>
      <point x="660" y="193" type="line" smooth="yes"/>
      <point x="660" y="134"/>
      <point x="659" y="41"/>
    </contour>
    <contour>
      <point x="37" y="0" type="line"/>
      <point x="249" y="0" type="line"/>
      <point x="249" y="32" type="line"/>
      <point x="157" y="50" type="line"/>
      <point x="138" y="50" type="line"/>
      <point x="37" y="32" type="line"/>
    </contour>
    <contour>
      <point x="105" y="0" type="curve"/>
      <point x="184" y="0" type="line"/>
      <point x="183" y="41"/>
      <point x="182" y="136"/>
      <point x="182" y="193" type="curve" smooth="yes"/>
      <point x="182" y="332" type="line"/>
      <point x="171" y="438" type="line"/>
      <point x="157" y="448" type="line"/>
      <point x="32" y="392" type="line"/>
      <point x="32" y="360" type="line"/>
      <point x="105" y="352" type="line"/>
      <point x="107" y="315"/>
      <point x="108" y="287"/>
      <point x="108" y="236" type="curve" smooth="yes"/>
      <point x="108" y="193" type="line" smooth="yes"/>
      <point x="108" y="136"/>
      <point x="107" y="41"/>
    </contour>
    <contour>
      <point x="313" y="0" type="line"/>
      <point x="525" y="0" type="line"/>
      <point x="525" y="32" type="line"/>
      <point x="433" y="50" type="line"/>
      <point x="414" y="50" type="line"/>
      <point x="313" y="32" type="line"/>
    </contour>
    <contour>
      <point x="381" y="0" type="curve"/>
      <point x="460" y="0" type="line"/>
      <point x="459" y="41"/>
      <point x="458" y="134"/>
      <point x="458" y="193" type="curve" smooth="yes"/>
      <point x="458" y="277" type="line" smooth="yes"/>
      <point x="458" y="399"/>
      <point x="420" y="448"/>
      <point x="341" y="448" type="curve" smooth="yes"/>
      <point x="278" y="448"/>
      <point x="210" y="405"/>
      <point x="167" y="350" type="curve"/>
      <point x="159" y="350" type="line"/>
      <point x="174" y="320" type="line"/>
      <point x="226" y="365"/>
      <point x="262" y="383"/>
      <point x="307" y="383" type="curve" smooth="yes"/>
      <point x="362" y="383"/>
      <point x="384" y="356"/>
      <point x="384" y="270" type="curve" smooth="yes"/>
      <point x="384" y="193" type="line" smooth="yes"/>
      <point x="384" y="134"/>
      <point x="383" y="41"/>
    </contour>
    <contour>
      <point x="589" y="0" type="line"/>
      <point x="801" y="0" type="line"/>
      <point x="801" y="32" type="line"/>
      <point x="709" y="50" type="line"/>
      <point x="690" y="50" type="line"/>
      <point x="589" y="32" type="line"/>
    </contour>
  </outline>
</glyph>
<glyph name="z" format="2">
  <advance width="418"/>
  <unicode hex="007A"/>
  <anchor x="219" y="465" name="aboveLC"/>
  <anchor x="221" y="-20" name="belowLC"/>
  <outline>
    <contour>
      <point x="27" y="0" type="line"/>
      <point x="386" y="0" type="line"/>
      <point x="395" y="149" type="line"/>
      <point x="349" y="149" type="line"/>
      <point x="315" y="11" type="line"/>
      <point x="349" y="38" type="line"/>
      <point x="89" y="38" type="line"/>
      <point x="100" y="16" type="line"/>
      <point x="381" y="403" type="line"/>
      <point x="381" y="436" type="line"/>
      <point x="40" y="436" type="line"/>
      <point x="33" y="299" type="line"/>
      <point x="79" y="295" type="line"/>
      <point x="110" y="424" type="line"/>
      <point x="76" y="397" type="line"/>
      <point x="320" y="397" type="line"/>
      <point x="309" y="419" type="line"/>
      <point x="27" y="32" type="line"/>
    </contour>
  </outline>
</glyph>
<glyph name="braceright" format="2">
  <advance width="316"/>
  <unicode hex="007D"/>
  <outline>
    <contour>
      <point x="279" y="274" type="line"/>
      <point x="202" y="283"/>
      <point x="169" y="312"/>
      <point x="169" y="358" type="curve" smooth="yes"/>
      <point x="169" y="407"/>
      <point x="207" y="470"/>
      <point x="207" y="546" type="curve" smooth="yes"/>
      <point x="207" y="619"/>
      <point x="156" y="657"/>
      <point x="69" y="657" type="curve" smooth="yes"/>
      <point x="27" y="657" type="line"/>
      <point x="27" y="621" type="line"/>
      <point x="52" y="619" type="line" smooth="yes"/>
      <point x="116" y="611"/>
      <point x="142" y="597"/>
      <point x="142" y="542" type="curve" smooth="yes"/>
      <point x="142" y="471"/>
      <point x="123" y="404"/>
      <point x="123" y="368" type="curve" smooth="yes"/>
      <point x="123" y="298"/>
      <point x="160" y="253"/>
      <point x="247" y="251" type="curve"/>
      <point x="247" y="260" type="line"/>
      <point x="160" y="258"/>
      <point x="123" y="213"/>
      <point x="123" y="143" type="curve" smooth="yes"/>
      <point x="123" y="106"/>
      <point x="142" y="39"/>
      <point x="142" y="-31" type="curve" smooth="yes"/>
      <point x="142" y="-85"/>
      <point x="116" y="-100"/>
      <point x="52" y="-107" type="curve" smooth="yes"/>
      <point x="27" y="-110" type="line"/>
      <point x="27" y="-146" type="line"/>
      <point x="69" y="-146" type="line" smooth="yes"/>
      <point x="156" y="-146"/>
      <point x="207" y="-107"/>
      <point x="207" y="-34" type="curve" smooth="yes"/>
      <point x="207" y="41"/>
      <point x="169" y="103"/>
      <point x="169" y="152" type="curve" smooth="yes"/>
      <point x="169" y="198"/>
      <point x="202" y="228"/>
      <point x="279" y="237" type="curve"/>
    </contour>
  </outline>
</glyph>
<glyph name="cent" format="2">
  <advance width="457"/>
  <unicode hex="00A2"/>
  <outline>
    <contour>
      <point x="263" y="-41" type="line"/>
      <point x="263" y="607" type="line"/>
      <point x="226" y="607" type="line"/>
      <point x="226" y="-41" type="line"/>
    </contour>
    <contour>
      <point x="252" y="481" type="curve" smooth="yes"/>
      <point x="278" y="481"/>
      <point x="310" y="474"/>
      <point x="342" y="458" type="curve"/>
      <point x="299" y="492" type="line"/>
      <point x="312" y="438" type="line" smooth="yes"/>
      <point x="324" y="390"/>
      <point x="341" y="369"/>
      <point x="370" y="369" type="curve" smooth="yes"/>
      <point x="394" y="369"/>
      <point x="408" y="380"/>
      <point x="413" y="403" type="curve"/>
      <point x="401" y="471"/>
      <point x="333" y="522"/>
      <point x="252" y="522" type="curve" smooth="yes"/>
      <point x="141" y="522"/>
      <point x="40" y="433"/>
      <point x="40" y="288" type="curve" smooth="yes"/>
      <point x="40" y="148"/>
      <point x="119" y="57"/>
      <point x="241" y="57" type="curve" smooth="yes"/>
      <point x="332" y="57"/>
      <point x="391" y="100"/>
      <point x="415" y="176" type="curve"/>
      <point x="393" y="187" type="line"/>
      <point x="365" y="141"/>
      <point x="311" y="115"/>
      <point x="257" y="115" type="curve" smooth="yes"/>
      <point x="173" y="115"/>
      <point x="116" y="181"/>
      <point x="116" y="297" type="curve" smooth="yes"/>
      <point x="116" y="414"/>
      <point x="173" y="481"/>
    </contour>
  </outline>
</glyph>
<glyph name="sterling" format="2">
  <advance width="457"/>
  <unicode hex="00A3"/>
  <outline>
    <contour>
      <point x="36" y="262" type="line"/>
      <point x="351" y="262" type="line"/>
      <point x="351" y="308" type="line"/>
      <point x="36" y="308" type="line"/>
    </contour>
    <contour>
      <point x="31" y="0" type="line"/>
      <point x="426" y="0" type="line"/>
      <point x="426" y="73" type="line"/>
      <point x="84" y="73" type="line"/>
      <point x="84" y="51" type="line"/>
      <point x="149" y="86"/>
      <point x="185" y="144"/>
      <point x="185" y="236" type="curve" smooth="yes"/>
      <point x="185" y="317"/>
      <point x="165" y="360"/>
      <point x="165" y="440" type="curve" smooth="yes"/>
      <point x="165" y="529"/>
      <point x="209" y="565"/>
      <point x="266" y="565" type="curve" smooth="yes"/>
      <point x="287" y="565"/>
      <point x="318" y="561"/>
      <point x="354" y="545" type="curve"/>
      <point x="302" y="575" type="line"/>
      <point x="318" y="505" type="line" smooth="yes"/>
      <point x="328" y="459"/>
      <point x="346" y="444"/>
      <point x="371" y="444" type="curve" smooth="yes"/>
      <point x="391" y="444"/>
      <point x="405" y="453"/>
      <point x="413" y="472" type="curve"/>
      <point x="408" y="552"/>
      <point x="336" y="607"/>
      <point x="253" y="607" type="curve" smooth="yes"/>
      <point x="152" y="607"/>
      <point x="82" y="533"/>
      <point x="82" y="437" type="curve" smooth="yes"/>
      <point x="82" y="348"/>
      <point x="135" y="314"/>
      <point x="135" y="230" type="curve" smooth="yes"/>
      <point x="135" y="157"/>
      <point x="97" y="82"/>
      <point x="31" y="46" type="curve"/>
    </contour>
  </outline>
</glyph>
<glyph name="currency" format="2">
  <advance width="460"/>
  <unicode hex="00A4"/>
  <outline>
    <contour>
      <point x="337" y="393" type="line"/>
      <point x="380" y="419" type="line" smooth="yes"/>
      <point x="422" y="444"/>
      <point x="433" y="457"/>
      <point x="433" y="472" type="curve" smooth="yes"/>
      <point x="433" y="491"/>
      <point x="418" y="506"/>
      <point x="400" y="506" type="curve" smooth="yes"/>
      <point x="384" y="506"/>
      <point x="371" y="494"/>
      <point x="346" y="453" type="curve" smooth="yes"/>
      <point x="321" y="410" type="line"/>
    </contour>
    <contour>
      <point x="129" y="302" type="curve" smooth="yes"/>
      <point x="129" y="363"/>
      <point x="174" y="405"/>
      <point x="230" y="405" type="curve" smooth="yes"/>
      <point x="284" y="405"/>
      <point x="329" y="363"/>
      <point x="329" y="302" type="curve" smooth="yes"/>
      <point x="329" y="241"/>
      <point x="284" y="199"/>
      <point x="230" y="199" type="curve" smooth="yes"/>
      <point x="174" y="199"/>
      <point x="129" y="241"/>
    </contour>
    <contour>
      <point x="78" y="302" type="curve" smooth="yes"/>
      <point x="78" y="213"/>
      <point x="148" y="153"/>
      <point x="230" y="153" type="curve" smooth="yes"/>
      <point x="310" y="153"/>
      <point x="380" y="213"/>
      <point x="380" y="302" type="curve" smooth="yes"/>
      <point x="380" y="391"/>
      <point x="310" y="451"/>
      <point x="230" y="451" type="curve" smooth="yes"/>
      <point x="148" y="451"/>
      <point x="78" y="391"/>
    </contour>
    <contour>
      <point x="138" y="410" type="line"/>
      <point x="113" y="453" type="line" smooth="yes"/>
      <point x="88" y="494"/>
      <point x="75" y="506"/>
      <point x="59" y="506" type="curve" smooth="yes"/>
      <point x="41" y="506"/>
      <point x="26" y="491"/>
      <point x="26" y="472" type="curve" smooth="yes"/>
      <point x="26" y="457"/>
      <point x="37" y="444"/>
      <point x="79" y="419" type="curve" smooth="yes"/>
      <point x="122" y="393" type="line"/>
    </contour>
    <contour>
      <point x="122" y="211" type="line"/>
      <point x="79" y="185" type="line" smooth="yes"/>
      <point x="37" y="161"/>
      <point x="26" y="148"/>
      <point x="26" y="132" type="curve" smooth="yes"/>
      <point x="26" y="114"/>
      <point x="41" y="99"/>
      <point x="59" y="99" type="curve" smooth="yes"/>
      <point x="75" y="99"/>
      <point x="88" y="110"/>
      <point x="113" y="151" type="curve" smooth="yes"/>
      <point x="138" y="195" type="line"/>
    </contour>
    <contour>
      <point x="321" y="195" type="line"/>
      <point x="346" y="151" type="line" smooth="yes"/>
      <point x="371" y="110"/>
      <point x="384" y="99"/>
      <point x="400" y="99" type="curve" smooth="yes"/>
      <point x="418" y="99"/>
      <point x="433" y="114"/>
      <point x="433" y="132" type="curve" smooth="yes"/>
      <point x="433" y="148"/>
      <point x="422" y="161"/>
      <point x="380" y="185" type="curve" smooth="yes"/>
      <point x="337" y="211" type="line"/>
    </contour>
  </outline>
</glyph>
<glyph name="section" format="2">
  <advance width="448"/>
  <unicode hex="00A7"/>
  <outline>
    <contour>
      <point x="241" y="630" type="curve" smooth="yes"/>
      <point x="133" y="630"/>
      <point x="83" y="563"/>
      <point x="83" y="499" type="curve" smooth="yes"/>
      <point x="83" y="437"/>
      <point x="121" y="383"/>
      <point x="228" y="334" type="curve" smooth="yes"/>
      <point x="295" y="304"/>
      <point x="344" y="282"/>
      <point x="344" y="230" type="curve" smooth="yes"/>
      <point x="344" y="195"/>
      <point x="321" y="152"/>
      <point x="285" y="134" type="curve"/>
      <point x="299" y="111" type="line"/>
      <point x="366" y="139"/>
      <point x="407" y="185"/>
      <point x="407" y="250" type="curve" smooth="yes"/>
      <point x="407" y="326"/>
      <point x="356" y="361"/>
      <point x="264" y="403" type="curve" smooth="yes"/>
      <point x="205" y="431"/>
      <point x="151" y="461"/>
      <point x="151" y="518" type="curve" smooth="yes"/>
      <point x="151" y="554"/>
      <point x="181" y="588"/>
      <point x="248" y="588" type="curve" smooth="yes"/>
      <point x="260" y="588"/>
      <point x="273" y="586"/>
      <point x="288" y="582" type="curve"/>
      <point x="257" y="600" type="line"/>
      <point x="285" y="546" type="line" smooth="yes"/>
      <point x="301" y="513"/>
      <point x="318" y="497"/>
      <point x="345" y="497" type="curve" smooth="yes"/>
      <point x="364" y="497"/>
      <point x="379" y="506"/>
      <point x="388" y="529" type="curve"/>
      <point x="387" y="583"/>
      <point x="323" y="630"/>
    </contour>
    <contour>
      <point x="207" y="-92" type="curve" smooth="yes"/>
      <point x="307" y="-92"/>
      <point x="365" y="-23"/>
      <point x="365" y="47" type="curve" smooth="yes"/>
      <point x="365" y="128"/>
      <point x="290" y="172"/>
      <point x="218" y="206" type="curve" smooth="yes"/>
      <point x="162" y="231"/>
      <point x="104" y="259"/>
      <point x="104" y="315" type="curve" smooth="yes"/>
      <point x="104" y="350"/>
      <point x="126" y="386"/>
      <point x="163" y="404" type="curve"/>
      <point x="149" y="427" type="line"/>
      <point x="76" y="396"/>
      <point x="41" y="351"/>
      <point x="41" y="294" type="curve" smooth="yes"/>
      <point x="41" y="210"/>
      <point x="103" y="175"/>
      <point x="184" y="136" type="curve" smooth="yes"/>
      <point x="254" y="102"/>
      <point x="297" y="79"/>
      <point x="297" y="28" type="curve" smooth="yes"/>
      <point x="297" y="-13"/>
      <point x="266" y="-50"/>
      <point x="199" y="-50" type="curve" smooth="yes"/>
      <point x="189" y="-50"/>
      <point x="180" y="-49"/>
      <point x="167" y="-46" type="curve"/>
      <point x="191" y="-62" type="line"/>
      <point x="163" y="-8" type="line" smooth="yes"/>
      <point x="147" y="24"/>
      <point x="130" y="40"/>
      <point x="103" y="40" type="curve" smooth="yes"/>
      <point x="84" y="40"/>
      <point x="69" y="32"/>
      <point x="60" y="8" type="curve"/>
      <point x="61" y="-44"/>
      <point x="124" y="-92"/>
    </contour>
  </outline>
</glyph>
<glyph name="macron" format="2">
  <advance width="368"/>
  <unicode hex="00AF"/>
  <anchor x="184" y="465" name="_aboveLC"/>
  <anchor x="184" y="614" name="aboveLC"/>
  <outline>
    <contour>
      <point x="65" y="549" type="line"/>
      <point x="302" y="549" type="line"/>
      <point x="302" y="605" type="line"/>
      <point x="65" y="605" type="line"/>
    </contour>
  </outline>
</glyph>
<glyph name="two.sups" format="2">
  <advance width="340"/>
  <unicode hex="00B2"/>
  <outline>
    <contour>
      <point x="50" y="391" type="line"/>
      <point x="296" y="391" type="line"/>
      <point x="296" y="455" type="line"/>
      <point x="90" y="455" type="line"/>
      <point x="77" y="418" type="line"/>
      <point x="164" y="499" type="line" smooth="yes"/>
      <point x="247" y="576"/>
      <point x="282" y="617"/>
      <point x="282" y="669" type="curve" smooth="yes"/>
      <point x="282" y="718"/>
      <point x="251" y="765"/>
      <point x="171" y="765" type="curve" smooth="yes"/>
      <point x="106" y="765"/>
      <point x="49" y="735"/>
      <point x="45" y="672" type="curve"/>
      <point x="52" y="659"/>
      <point x="63" y="651"/>
      <point x="78" y="651" type="curve" smooth="yes"/>
      <point x="94" y="651"/>
      <point x="105" y="661"/>
      <point x="114" y="696" type="curve" smooth="yes"/>
      <point x="126" y="747" type="line"/>
      <point x="90" y="722" type="line"/>
      <point x="112" y="731"/>
      <point x="131" y="734"/>
      <point x="147" y="734" type="curve" smooth="yes"/>
      <point x="191" y="734"/>
      <point x="217" y="709"/>
      <point x="217" y="662" type="curve" smooth="yes"/>
      <point x="217" y="615"/>
      <point x="190" y="572"/>
      <point x="136" y="519" type="curve" smooth="yes"/>
      <point x="50" y="437" type="line"/>
    </contour>
  </outline>
</glyph>
<glyph name="mu" format="2">
  <advance width="522"/>
  <unicode hex="00B5"/>
  <outline>
    <contour>
      <point x="73" y="-165" type="line"/>
      <point x="84" y="-174" type="line"/>
      <point x="157" y="-158" type="line"/>
      <point x="133" y="77" type="line"/>
      <point x="145" y="95" type="line"/>
      <point x="145" y="175"/>
      <point x="153" y="257"/>
      <point x="163" y="438" type="curve"/>
      <point x="154" y="448" type="line"/>
      <point x="79" y="431" type="line"/>
      <point x="92" y="92" type="line"/>
    </contour>
    <contour>
      <point x="240" y="-11" type="curve" smooth="yes"/>
      <point x="302" y="-11"/>
      <point x="352" y="35"/>
      <point x="383" y="151" type="curve"/>
      <point x="367" y="169" type="line"/>
      <point x="333" y="78"/>
      <point x="298" y="57"/>
      <point x="248" y="57" type="curve" smooth="yes"/>
      <point x="212" y="57"/>
      <point x="172" y="72"/>
      <point x="143" y="140" type="curve"/>
      <point x="124" y="87" type="line"/>
      <point x="144" y="21"/>
      <point x="196" y="-11"/>
    </contour>
    <contour>
      <point x="433" y="-11" type="curve" smooth="yes"/>
      <point x="469" y="-11"/>
      <point x="494" y="9"/>
      <point x="508" y="35" type="curve"/>
      <point x="501" y="58" type="line"/>
      <point x="489" y="54"/>
      <point x="474" y="50"/>
      <point x="462" y="50" type="curve" smooth="yes"/>
      <point x="432" y="50"/>
      <point x="423" y="66"/>
      <point x="421" y="124" type="curve" smooth="yes"/>
      <point x="419" y="188"/>
      <point x="427" y="255"/>
      <point x="442" y="438" type="curve"/>
      <point x="433" y="448" type="line"/>
      <point x="357" y="431" type="line"/>
      <point x="364" y="115" type="line" smooth="yes"/>
      <point x="366" y="34"/>
      <point x="379" y="-11"/>
    </contour>
  </outline>
</glyph>
<glyph name="paragraph" format="2">
  <advance width="388"/>
  <unicode hex="00B6"/>
  <outline>
    <contour>
      <point x="373" y="580" type="line"/>
      <point x="188" y="580" type="line" smooth="yes"/>
      <point x="87" y="580"/>
      <point x="10" y="535"/>
      <point x="10" y="424" type="curve" smooth="yes"/>
      <point x="10" y="314"/>
      <point x="82" y="262"/>
      <point x="183" y="259" type="curve"/>
      <point x="183" y="-107" type="line"/>
      <point x="235" y="-107" type="line"/>
      <point x="235" y="540" type="line"/>
      <point x="293" y="540" type="line"/>
      <point x="293" y="-107" type="line"/>
      <point x="346" y="-107" type="line"/>
      <point x="346" y="540" type="line"/>
      <point x="373" y="540" type="line"/>
    </contour>
  </outline>
</glyph>
<glyph name="Agrave" format="2">
  <advance width="609"/>
  <unicode hex="00C0"/>
  <anchor x="304" y="806" name="aboveUC"/>
  <anchor x="287" y="-20" name="belowLC"/>
  <anchor x="502" y="0" name="ogonek"/>
  <outline>
    <contour>
      <point x="4" y="0" type="line"/>
      <point x="216" y="0" type="line"/>
      <point x="216" y="36" type="line"/>
      <point x="115" y="50" type="line"/>
      <point x="96" y="50" type="line"/>
      <point x="4" y="36" type="line"/>
    </contour>
    <contour>
      <point x="65" y="0" type="line"/>
      <point x="108" y="0" type="line"/>
      <point x="285" y="519" type="line"/>
      <point x="460" y="0" type="line"/>
      <point x="545" y="0" type="line"/>
      <point x="333" y="621" type="line"/>
      <point x="278" y="621" type="line"/>
    </contour>
    <contour>
      <point x="156" y="201" type="line"/>
      <point x="434" y="201" type="line"/>
      <point x="419" y="243" type="line"/>
      <point x="171" y="243" type="line"/>
    </contour>
    <contour>
      <point x="352" y="0" type="line"/>
      <point x="600" y="0" type="line"/>
      <point x="600" y="36" type="line"/>
      <point x="486" y="50" type="line"/>
      <point x="468" y="50" type="line"/>
      <point x="352" y="36" type="line"/>
    </contour>
    <contour>
      <point x="365" y="686" type="line"/>
      <point x="337" y="714"/>
      <point x="309" y="743"/>
      <point x="279" y="771" type="curve" smooth="yes"/>
      <point x="253" y="797"/>
      <point x="238" y="806"/>
      <point x="222" y="806" type="curve" smooth="yes"/>
      <point x="204" y="806"/>
      <point x="188" y="794"/>
      <point x="188" y="776" type="curve" smooth="yes"/>
      <point x="188" y="759"/>
      <point x="200" y="744"/>
      <point x="234" y="725" type="curve" smooth="yes"/>
      <point x="271" y="705"/>
      <point x="310" y="684"/>
      <point x="348" y="664" type="curve"/>
    </contour>
  </outline>
</glyph>
<glyph name="Ccedilla" format="2">
  <advance width="581"/>
  <unicode hex="00C7"/>
  <anchor x="341" y="635" name="aboveUC"/>
  <anchor x="348" y="0" name="baseLC"/>
  <anchor x="347" y="-20" name="belowLC"/>
  <outline>
    <contour>
      <point x="44" y="120"/>
      <point x="169" y="-13"/>
      <point x="355" y="-13" type="curve" smooth="yes"/>
      <point x="419" y="-13"/>
      <point x="483" y="0"/>
      <point x="540" y="30" type="curve"/>
      <point x="544" y="163" type="line"/>
      <point x="488" y="163" type="line"/>
      <point x="465" y="27" type="line"/>
      <point x="522" y="40" type="line"/>
      <point x="522" y="91" type="line"/>
      <point x="470" y="47"/>
      <point x="411" y="32"/>
      <point x="358" y="32" type="curve" smooth="yes"/>
      <point x="230" y="32"/>
      <point x="140" y="128"/>
      <point x="140" y="308" type="curve" smooth="yes"/>
      <point x="140" y="487"/>
      <point x="241" y="584"/>
      <point x="365" y="584" type="curve" smooth="yes"/>
      <point x="409" y="584"/>
      <point x="460" y="568"/>
      <point x="513" y="519" type="curve"/>
      <point x="513" y="575" type="line"/>
      <point x="456" y="588" type="line"/>
      <point x="479" y="452" type="line"/>
      <point x="535" y="452" type="line"/>
      <point x="531" y="586" type="line"/>
      <point x="469" y="621"/>
      <point x="403" y="630"/>
      <point x="354" y="630" type="curve" smooth="yes"/>
      <point x="174" y="630"/>
      <point x="44" y="492"/>
      <point x="44" y="308" type="curve" smooth="yes"/>
    </contour>
    <contour>
      <point x="313" y="-79" type="line"/>
      <point x="358" y="-85"/>
      <point x="379" y="-98"/>
      <point x="379" y="-126" type="curve" smooth="yes"/>
      <point x="379" y="-152"/>
      <point x="362" y="-169"/>
      <point x="326" y="-169" type="curve" smooth="yes"/>
      <point x="310" y="-169"/>
      <point x="297" y="-168"/>
      <point x="282" y="-166" type="curve"/>
      <point x="276" y="-194" type="line"/>
      <point x="287" y="-197"/>
      <point x="307" y="-202"/>
      <point x="333" y="-202" type="curve" smooth="yes"/>
      <point x="400" y="-202"/>
      <point x="435" y="-171"/>
      <point x="435" y="-128" type="curve" smooth="yes"/>
      <point x="435" y="-78"/>
      <point x="385" y="-54"/>
      <point x="331" y="-51" type="curve"/>
      <point x="349" y="-70" type="line"/>
      <point x="358" y="2" type="line"/>
      <point x="325" y="2" type="line"/>
    </contour>
  </outline>
</glyph>
<glyph name="Ecircumflex" format="2">
  <advance width="555"/>
  <unicode hex="00CA"/>
  <anchor x="314" y="795" name="aboveUC"/>
  <anchor x="323" y="-20" name="belowLC"/>
  <anchor x="443" y="0" name="ogonek"/>
  <outline>
    <contour>
      <point x="41" y="0" type="line"/>
      <point x="170" y="0" type="line"/>
      <point x="170" y="50" type="line"/>
      <point x="161" y="50" type="line"/>
      <point x="41" y="36" type="line"/>
    </contour>
    <contour>
      <point x="128" y="188"/>
      <point x="128" y="92"/>
      <point x="126" y="0" type="curve"/>
      <point x="214" y="0" type="line"/>
      <point x="211" y="94"/>
      <point x="211" y="190"/>
      <point x="211" y="296" type="curve" smooth="yes"/>
      <point x="211" y="331" type="line" smooth="yes"/>
      <point x="211" y="427"/>
      <point x="211" y="523"/>
      <point x="214" y="616" type="curve"/>
      <point x="126" y="616" type="line"/>
      <point x="128" y="521"/>
      <point x="128" y="425"/>
      <point x="128" y="331" type="curve" smooth="yes"/>
      <point x="128" y="285" type="line" smooth="yes"/>
    </contour>
    <contour>
      <point x="170" y="0" type="line"/>
      <point x="517" y="0" type="line"/>
      <point x="523" y="163" type="line"/>
      <point x="471" y="163" type="line"/>
      <point x="447" y="18" type="line"/>
      <point x="479" y="46" type="line"/>
      <point x="170" y="46" type="line"/>
    </contour>
    <contour>
      <point x="170" y="293" type="line"/>
      <point x="378" y="293" type="line"/>
      <point x="378" y="335" type="line"/>
      <point x="170" y="335" type="line"/>
    </contour>
    <contour>
      <point x="362" y="206" type="line"/>
      <point x="403" y="206" type="line"/>
      <point x="403" y="424" type="line"/>
      <point x="362" y="424" type="line"/>
      <point x="348" y="326" type="line"/>
      <point x="348" y="308" type="line"/>
    </contour>
    <contour>
      <point x="41" y="579" type="line"/>
      <point x="161" y="565" type="line"/>
      <point x="170" y="565" type="line"/>
      <point x="170" y="616" type="line"/>
      <point x="41" y="616" type="line"/>
    </contour>
    <contour>
      <point x="453" y="452" type="line"/>
      <point x="505" y="452" type="line"/>
      <point x="498" y="616" type="line"/>
      <point x="170" y="616" type="line"/>
      <point x="170" y="570" type="line"/>
      <point x="460" y="570" type="line"/>
      <point x="428" y="598" type="line"/>
    </contour>
    <contour>
      <point x="329" y="786" type="line"/>
      <point x="299" y="786" type="line"/>
      <point x="180" y="682" type="line"/>
      <point x="197" y="660" type="line"/>
      <point x="353" y="749" type="line"/>
      <point x="276" y="749" type="line"/>
      <point x="431" y="660" type="line"/>
      <point x="448" y="682" type="line"/>
    </contour>
  </outline>
</glyph>
<glyph name="Edieresis" format="2">
  <advance width="555"/>
  <unicode hex="00CB"/>
  <anchor x="299" y="794" name="aboveUC"/>
  <anchor x="323" y="-20" name="belowLC"/>
  <anchor x="443" y="0" name="ogonek"/>
  <outline>
    <contour>
      <point x="41" y="0" type="line"/>
      <point x="170" y="0" type="line"/>
      <point x="170" y="50" type="line"/>
      <point x="161" y="50" type="line"/>
      <point x="41" y="36" type="line"/>
    </contour>
    <contour>
      <point x="128" y="188"/>
      <point x="128" y="92"/>
      <point x="126" y="0" type="curve"/>
      <point x="214" y="0" type="line"/>
      <point x="211" y="94"/>
      <point x="211" y="190"/>
      <point x="211" y="296" type="curve" smooth="yes"/>
      <point x="211" y="331" type="line" smooth="yes"/>
      <point x="211" y="427"/>
      <point x="211" y="523"/>
      <point x="214" y="616" type="curve"/>
      <point x="126" y="616" type="line"/>
      <point x="128" y="521"/>
      <point x="128" y="425"/>
      <point x="128" y="331" type="curve" smooth="yes"/>
      <point x="128" y="285" type="line" smooth="yes"/>
    </contour>
    <contour>
      <point x="170" y="0" type="line"/>
      <point x="517" y="0" type="line"/>
      <point x="523" y="163" type="line"/>
      <point x="471" y="163" type="line"/>
      <point x="447" y="18" type="line"/>
      <point x="479" y="46" type="line"/>
      <point x="170" y="46" type="line"/>
    </contour>
    <contour>
      <point x="170" y="293" type="line"/>
      <point x="378" y="293" type="line"/>
      <point x="378" y="335" type="line"/>
      <point x="170" y="335" type="line"/>
    </contour>
    <contour>
      <point x="362" y="206" type="line"/>
      <point x="403" y="206" type="line"/>
      <point x="403" y="424" type="line"/>
      <point x="362" y="424" type="line"/>
      <point x="348" y="326" type="line"/>
      <point x="348" y="308" type="line"/>
    </contour>
    <contour>
      <point x="41" y="579" type="line"/>
      <point x="161" y="565" type="line"/>
      <point x="170" y="565" type="line"/>
      <point x="170" y="616" type="line"/>
      <point x="41" y="616" type="line"/>
    </contour>
    <contour>
      <point x="453" y="452" type="line"/>
      <point x="505" y="452" type="line"/>
      <point x="498" y="616" type="line"/>
      <point x="170" y="616" type="line"/>
      <point x="170" y="570" type="line"/>
      <point x="460" y="570" type="line"/>
      <point x="428" y="598" type="line"/>
    </contour>
    <contour>
      <point x="197" y="686" type="curve" smooth="yes"/>
      <point x="226" y="686"/>
      <point x="249" y="707"/>
      <point x="249" y="736" type="curve" smooth="yes"/>
      <point x="249" y="764"/>
      <point x="226" y="785"/>
      <point x="197" y="785" type="curve" smooth="yes"/>
      <point x="169" y="785"/>
      <point x="145" y="764"/>
      <point x="145" y="736" type="curve" smooth="yes"/>
      <point x="145" y="707"/>
      <point x="169" y="686"/>
    </contour>
    <contour>
      <point x="401" y="686" type="curve" smooth="yes"/>
      <point x="429" y="686"/>
      <point x="453" y="707"/>
      <point x="453" y="736" type="curve" smooth="yes"/>
      <point x="453" y="764"/>
      <point x="429" y="785"/>
      <point x="401" y="785" type="curve" smooth="yes"/>
      <point x="372" y="785"/>
      <point x="349" y="764"/>
      <point x="349" y="736" type="curve" smooth="yes"/>
      <point x="349" y="707"/>
      <point x="372" y="686"/>
    </contour>
  </outline>
</glyph>
<glyph name="Igrave" format="2">
  <advance width="340"/>
  <unicode hex="00CC"/>
  <anchor x="170" y="806" name="aboveUC"/>
  <anchor x="170" y="-20" name="belowLC"/>
  <anchor x="206" y="0" name="ogonek"/>
  <outline>
    <contour>
      <point x="41" y="0" type="line"/>
      <point x="299" y="0" type="line"/>
      <point x="299" y="36" type="line"/>
      <point x="179" y="50" type="line"/>
      <point x="161" y="50" type="line"/>
      <point x="41" y="36" type="line"/>
    </contour>
    <contour>
      <point x="128" y="188"/>
      <point x="128" y="92"/>
      <point x="126" y="0" type="curve"/>
      <point x="214" y="0" type="line"/>
      <point x="211" y="94"/>
      <point x="211" y="190"/>
      <point x="211" y="285" type="curve" smooth="yes"/>
      <point x="211" y="331" type="line" smooth="yes"/>
      <point x="211" y="427"/>
      <point x="211" y="523"/>
      <point x="214" y="616" type="curve"/>
      <point x="126" y="616" type="line"/>
      <point x="128" y="521"/>
      <point x="128" y="425"/>
      <point x="128" y="331" type="curve" smooth="yes"/>
      <point x="128" y="285" type="line" smooth="yes"/>
    </contour>
    <contour>
      <point x="41" y="579" type="line"/>
      <point x="161" y="565" type="line"/>
      <point x="179" y="565" type="line"/>
      <point x="299" y="579" type="line"/>
      <point x="299" y="616" type="line"/>
      <point x="41" y="616" type="line"/>
    </contour>
    <contour>
      <point x="230" y="686" type="line"/>
      <point x="203" y="714"/>
      <point x="174" y="743"/>
      <point x="145" y="771" type="curve" smooth="yes"/>
      <point x="119" y="797"/>
      <point x="103" y="806"/>
      <point x="88" y="806" type="curve" smooth="yes"/>
      <point x="69" y="806"/>
      <point x="54" y="794"/>
      <point x="54" y="776" type="curve" smooth="yes"/>
      <point x="54" y="759"/>
      <point x="66" y="744"/>
      <point x="100" y="725" type="curve" smooth="yes"/>
      <point x="137" y="705"/>
      <point x="175" y="684"/>
      <point x="214" y="664" type="curve"/>
    </contour>
  </outline>
</glyph>
<glyph name="Idieresis" format="2">
  <advance width="340"/>
  <unicode hex="00CF"/>
  <anchor x="170" y="635" name="aboveUC"/>
  <anchor x="170" y="-20" name="belowLC"/>
  <anchor x="206" y="0" name="ogonek"/>
  <outline>
    <contour>
      <point x="84" y="686" type="curve" smooth="yes"/>
      <point x="114" y="686"/>
      <point x="136" y="707"/>
      <point x="136" y="736" type="curve" smooth="yes"/>
      <point x="136" y="764"/>
      <point x="114" y="785"/>
      <point x="84" y="785" type="curve" smooth="yes"/>
      <point x="57" y="785"/>
      <point x="33" y="764"/>
      <point x="33" y="736" type="curve" smooth="yes"/>
      <point x="33" y="707"/>
      <point x="57" y="686"/>
    </contour>
    <contour>
      <point x="255" y="686" type="curve" smooth="yes"/>
      <point x="283" y="686"/>
      <point x="307" y="707"/>
      <point x="307" y="736" type="curve" smooth="yes"/>
      <point x="307" y="764"/>
      <point x="283" y="785"/>
      <point x="255" y="785" type="curve" smooth="yes"/>
      <point x="226" y="785"/>
      <point x="204" y="764"/>
      <point x="204" y="736" type="curve" smooth="yes"/>
      <point x="204" y="707"/>
      <point x="226" y="686"/>
    </contour>
    <contour>
      <point x="41" y="0" type="line"/>
      <point x="299" y="0" type="line"/>
      <point x="299" y="36" type="line"/>
      <point x="179" y="50" type="line"/>
      <point x="161" y="50" type="line"/>
      <point x="41" y="36" type="line"/>
    </contour>
    <contour>
      <point x="128" y="188"/>
      <point x="128" y="92"/>
      <point x="126" y="0" type="curve"/>
      <point x="214" y="0" type="line"/>
      <point x="211" y="94"/>
      <point x="211" y="190"/>
      <point x="211" y="285" type="curve" smooth="yes"/>
      <point x="211" y="331" type="line" smooth="yes"/>
      <point x="211" y="427"/>
      <point x="211" y="523"/>
      <point x="214" y="616" type="curve"/>
      <point x="126" y="616" type="line"/>
      <point x="128" y="521"/>
      <point x="128" y="425"/>
      <point x="128" y="331" type="curve" smooth="yes"/>
      <point x="128" y="285" type="line" smooth="yes"/>
    </contour>
    <contour>
      <point x="41" y="579" type="line"/>
      <point x="161" y="565" type="line"/>
      <point x="179" y="565" type="line"/>
      <point x="299" y="579" type="line"/>
      <point x="299" y="616" type="line"/>
      <point x="41" y="616" type="line"/>
    </contour>
  </outline>
</glyph>
<glyph name="Odieresis" format="2">
  <advance width="650"/>
  <unicode hex="00D6"/>
  <anchor x="325" y="794" name="aboveUC"/>
  <anchor x="324" y="-20" name="belowLC"/>
  <anchor x="464" y="605" name="hornLC"/>
  <anchor x="408" y="0" name="ogonek"/>
  <outline>
    <contour>
      <point x="325" y="-13" type="curve" smooth="yes"/>
      <point x="468" y="-13"/>
      <point x="606" y="106"/>
      <point x="606" y="308" type="curve" smooth="yes"/>
      <point x="606" y="517"/>
      <point x="467" y="630"/>
      <point x="325" y="630" type="curve" smooth="yes"/>
      <point x="184" y="630"/>
      <point x="44" y="509"/>
      <point x="44" y="308" type="curve" smooth="yes"/>
      <point x="44" y="98"/>
      <point x="183" y="-13"/>
    </contour>
    <contour>
      <point x="325" y="32" type="curve" smooth="yes"/>
      <point x="195" y="32"/>
      <point x="140" y="170"/>
      <point x="140" y="308" type="curve" smooth="yes"/>
      <point x="140" y="446"/>
      <point x="195" y="584"/>
      <point x="325" y="584" type="curve" smooth="yes"/>
      <point x="455" y="584"/>
      <point x="509" y="446"/>
      <point x="509" y="308" type="curve" smooth="yes"/>
      <point x="509" y="170"/>
      <point x="455" y="32"/>
    </contour>
    <contour>
      <point x="223" y="686" type="curve" smooth="yes"/>
      <point x="252" y="686"/>
      <point x="275" y="707"/>
      <point x="275" y="736" type="curve" smooth="yes"/>
      <point x="275" y="764"/>
      <point x="252" y="785"/>
      <point x="223" y="785" type="curve" smooth="yes"/>
      <point x="195" y="785"/>
      <point x="171" y="764"/>
      <point x="171" y="736" type="curve" smooth="yes"/>
      <point x="171" y="707"/>
      <point x="195" y="686"/>
    </contour>
    <contour>
      <point x="426" y="686" type="curve" smooth="yes"/>
      <point x="455" y="686"/>
      <point x="479" y="707"/>
      <point x="479" y="736" type="curve" smooth="yes"/>
      <point x="479" y="764"/>
      <point x="455" y="785"/>
      <point x="426" y="785" type="curve" smooth="yes"/>
      <point x="398" y="785"/>
      <point x="375" y="764"/>
      <point x="375" y="736" type="curve" smooth="yes"/>
      <point x="375" y="707"/>
      <point x="398" y="686"/>
    </contour>
  </outline>
</glyph>
<glyph name="germandbls" format="2">
  <advance width="540"/>
  <unicode hex="00DF"/>
  <outline>
    <contour>
      <point x="136" y="50" type="line"/>
      <point x="126" y="50" type="line"/>
      <point x="23" y="32" type="line"/>
      <point x="23" y="0" type="line"/>
      <point x="136" y="0" type="line"/>
    </contour>
    <contour>
      <point x="99" y="193" type="line" smooth="yes"/>
      <point x="99" y="128"/>
      <point x="98" y="64"/>
      <point x="96" y="0" type="curve"/>
      <point x="175" y="0" type="line"/>
      <point x="173" y="64"/>
      <point x="172" y="128"/>
      <point x="172" y="193" type="curve" smooth="yes"/>
      <point x="172" y="440" type="line" smooth="yes"/>
      <point x="172" y="552"/>
      <point x="185" y="591"/>
      <point x="212" y="618" type="curve" smooth="yes"/>
      <point x="234" y="640"/>
      <point x="260" y="648"/>
      <point x="295" y="648" type="curve" smooth="yes"/>
      <point x="363" y="648"/>
      <point x="392" y="611"/>
      <point x="392" y="552" type="curve" smooth="yes"/>
      <point x="392" y="508"/>
      <point x="376" y="483"/>
      <point x="333" y="448" type="curve" smooth="yes"/>
      <point x="290" y="413"/>
      <point x="272" y="375"/>
      <point x="272" y="329" type="curve" smooth="yes"/>
      <point x="272" y="264"/>
      <point x="309" y="237"/>
      <point x="368" y="201" type="curve" smooth="yes"/>
      <point x="437" y="160"/>
      <point x="449" y="136"/>
      <point x="449" y="104" type="curve" smooth="yes"/>
      <point x="449" y="57"/>
      <point x="425" y="29"/>
      <point x="362" y="29" type="curve" smooth="yes"/>
      <point x="336" y="29"/>
      <point x="306" y="34"/>
      <point x="262" y="59" type="curve"/>
      <point x="307" y="14" type="line"/>
      <point x="277" y="123" type="line"/>
      <point x="234" y="123" type="line"/>
      <point x="238" y="13" type="line"/>
      <point x="280" y="-1"/>
      <point x="321" y="-11"/>
      <point x="367" y="-11" type="curve" smooth="yes"/>
      <point x="472" y="-11"/>
      <point x="520" y="39"/>
      <point x="520" y="119" type="curve" smooth="yes"/>
      <point x="520" y="177"/>
      <point x="496" y="208"/>
      <point x="406" y="264" type="curve" smooth="yes"/>
      <point x="356" y="296"/>
      <point x="335" y="310"/>
      <point x="335" y="349" type="curve" smooth="yes"/>
      <point x="335" y="379"/>
      <point x="347" y="407"/>
      <point x="387" y="436" type="curve" smooth="yes"/>
      <point x="437" y="472"/>
      <point x="466" y="515"/>
      <point x="466" y="564" type="curve" smooth="yes"/>
      <point x="466" y="637"/>
      <point x="402" y="690"/>
      <point x="309" y="690" type="curve" smooth="yes"/>
      <point x="256" y="690"/>
      <point x="209" y="674"/>
      <point x="170" y="634" type="curve" smooth="yes"/>
      <point x="125" y="589"/>
      <point x="99" y="535"/>
      <point x="99" y="383" type="curve" smooth="yes"/>
    </contour>
  </outline>
</glyph>
<glyph name="ccedilla" format="2">
  <advance width="447"/>
  <unicode hex="00E7"/>
  <anchor x="251" y="465" name="aboveLC"/>
  <anchor x="253" y="0" name="baseLC"/>
  <anchor x="253" y="-20" name="belowLC"/>
  <outline>
    <contour>
      <point x="39" y="76"/>
      <point x="118" y="-11"/>
      <point x="244" y="-11" type="curve" smooth="yes"/>
      <point x="331" y="-11"/>
      <point x="390" y="30"/>
      <point x="414" y="106" type="curve"/>
      <point x="392" y="117" type="line"/>
      <point x="364" y="71"/>
      <point x="317" y="46"/>
      <point x="264" y="46" type="curve" smooth="yes"/>
      <point x="177" y="46"/>
      <point x="115" y="109"/>
      <point x="115" y="225" type="curve" smooth="yes"/>
      <point x="115" y="343"/>
      <point x="172" y="406"/>
      <point x="253" y="406" type="curve" smooth="yes"/>
      <point x="278" y="406"/>
      <point x="310" y="400"/>
      <point x="341" y="383" type="curve"/>
      <point x="299" y="417" type="line"/>
      <point x="322" y="336" type="line" smooth="yes"/>
      <point x="328" y="313"/>
      <point x="340" y="295"/>
      <point x="370" y="295" type="curve" smooth="yes"/>
      <point x="393" y="295"/>
      <point x="407" y="306"/>
      <point x="412" y="329" type="curve"/>
      <point x="400" y="397"/>
      <point x="332" y="448"/>
      <point x="250" y="448" type="curve" smooth="yes"/>
      <point x="140" y="448"/>
      <point x="39" y="361"/>
      <point x="39" y="217" type="curve" smooth="yes"/>
    </contour>
    <contour>
      <point x="218" y="-79" type="line"/>
      <point x="264" y="-85"/>
      <point x="285" y="-98"/>
      <point x="285" y="-126" type="curve" smooth="yes"/>
      <point x="285" y="-152"/>
      <point x="267" y="-169"/>
      <point x="231" y="-169" type="curve" smooth="yes"/>
      <point x="215" y="-169"/>
      <point x="202" y="-168"/>
      <point x="187" y="-166" type="curve"/>
      <point x="181" y="-194" type="line"/>
      <point x="193" y="-197"/>
      <point x="212" y="-202"/>
      <point x="238" y="-202" type="curve" smooth="yes"/>
      <point x="305" y="-202"/>
      <point x="340" y="-171"/>
      <point x="340" y="-128" type="curve" smooth="yes"/>
      <point x="340" y="-78"/>
      <point x="290" y="-54"/>
      <point x="236" y="-51" type="curve"/>
      <point x="254" y="-70" type="line"/>
      <point x="264" y="2" type="line"/>
      <point x="230" y="2" type="line"/>
    </contour>
  </outline>
</glyph>
<glyph name="oacute" format="2">
  <advance width="504"/>
  <unicode hex="00F3"/>
  <anchor x="270" y="696" name="aboveLC"/>
  <anchor x="253" y="-20" name="belowLC"/>
  <anchor x="360" y="441" name="hornLC"/>
  <anchor x="322" y="0" name="ogonek"/>
  <outline>
    <contour>
      <point x="252" y="-11" type="curve" smooth="yes"/>
      <point x="356" y="-11"/>
      <point x="461" y="63"/>
      <point x="461" y="216" type="curve" smooth="yes"/>
      <point x="461" y="368"/>
      <point x="356" y="448"/>
      <point x="252" y="448" type="curve" smooth="yes"/>
      <point x="146" y="448"/>
      <point x="42" y="368"/>
      <point x="42" y="216" type="curve" smooth="yes"/>
      <point x="42" y="63"/>
      <point x="146" y="-11"/>
    </contour>
    <contour>
      <point x="252" y="29" type="curve" smooth="yes"/>
      <point x="170" y="29"/>
      <point x="125" y="92"/>
      <point x="125" y="216" type="curve" smooth="yes"/>
      <point x="125" y="339"/>
      <point x="170" y="406"/>
      <point x="252" y="406" type="curve" smooth="yes"/>
      <point x="332" y="406"/>
      <point x="379" y="339"/>
      <point x="379" y="216" type="curve" smooth="yes"/>
      <point x="379" y="92"/>
      <point x="332" y="29"/>
    </contour>
    <contour>
      <point x="217" y="529" type="curve"/>
      <point x="240" y="512" type="line"/>
      <point x="278" y="546"/>
      <point x="315" y="579"/>
      <point x="352" y="613" type="curve" smooth="yes"/>
      <point x="377" y="636"/>
      <point x="381" y="650"/>
      <point x="381" y="662" type="curve" smooth="yes"/>
      <point x="381" y="685"/>
      <point x="365" y="696"/>
      <point x="347" y="696" type="curve" smooth="yes"/>
      <point x="332" y="696"/>
      <point x="316" y="687"/>
      <point x="299" y="659" type="curve" smooth="yes"/>
      <point x="270" y="616"/>
      <point x="243" y="573"/>
    </contour>
  </outline>
</glyph>
<glyph name="odieresis" format="2">
  <advance width="504"/>
  <unicode hex="00F6"/>
  <anchor x="252" y="625" name="aboveLC"/>
  <anchor x="253" y="-20" name="belowLC"/>
  <anchor x="360" y="441" name="hornLC"/>
  <anchor x="322" y="0" name="ogonek"/>
  <outline>
    <contour>
      <point x="252" y="-11" type="curve" smooth="yes"/>
      <point x="356" y="-11"/>
      <point x="461" y="63"/>
      <point x="461" y="216" type="curve" smooth="yes"/>
      <point x="461" y="368"/>
      <point x="356" y="448"/>
      <point x="252" y="448" type="curve" smooth="yes"/>
      <point x="146" y="448"/>
      <point x="42" y="368"/>
      <point x="42" y="216" type="curve" smooth="yes"/>
      <point x="42" y="63"/>
      <point x="146" y="-11"/>
    </contour>
    <contour>
      <point x="252" y="29" type="curve" smooth="yes"/>
      <point x="170" y="29"/>
      <point x="125" y="92"/>
      <point x="125" y="216" type="curve" smooth="yes"/>
      <point x="125" y="339"/>
      <point x="170" y="406"/>
      <point x="252" y="406" type="curve" smooth="yes"/>
      <point x="332" y="406"/>
      <point x="379" y="339"/>
      <point x="379" y="216" type="curve" smooth="yes"/>
      <point x="379" y="92"/>
      <point x="332" y="29"/>
    </contour>
    <contour>
      <point x="156" y="549" type="curve" smooth="yes"/>
      <point x="185" y="549"/>
      <point x="210" y="571"/>
      <point x="210" y="600" type="curve" smooth="yes"/>
      <point x="210" y="630"/>
      <point x="185" y="652"/>
      <point x="156" y="652" type="curve" smooth="yes"/>
      <point x="126" y="652"/>
      <point x="103" y="630"/>
      <point x="103" y="600" type="curve" smooth="yes"/>
      <point x="103" y="571"/>
      <point x="126" y="549"/>
    </contour>
    <contour>
      <point x="347" y="549" type="curve" smooth="yes"/>
      <point x="377" y="549"/>
      <point x="401" y="571"/>
      <point x="401" y="600" type="curve" smooth="yes"/>
      <point x="401" y="630"/>
      <point x="377" y="652"/>
      <point x="347" y="652" type="curve" smooth="yes"/>
      <point x="318" y="652"/>
      <point x="293" y="630"/>
      <point x="293" y="600" type="curve" smooth="yes"/>
      <point x="293" y="571"/>
      <point x="318" y="549"/>
    </contour>
  </outline>
</glyph>
<glyph name="divide" format="2">
  <advance width="487"/>
  <unicode hex="00F7"/>
  <outline>
    <contour>
      <point x="243" y="62" type="curve" smooth="yes"/>
      <point x="277" y="62"/>
      <point x="306" y="87"/>
      <point x="306" y="123" type="curve" smooth="yes"/>
      <point x="306" y="160"/>
      <point x="277" y="184"/>
      <point x="243" y="184" type="curve" smooth="yes"/>
      <point x="209" y="184"/>
      <point x="181" y="160"/>
      <point x="181" y="123" type="curve" smooth="yes"/>
      <point x="181" y="87"/>
      <point x="209" y="62"/>
    </contour>
    <contour>
      <point x="243" y="423" type="curve" smooth="yes"/>
      <point x="277" y="423"/>
      <point x="306" y="448"/>
      <point x="306" y="483" type="curve" smooth="yes"/>
      <point x="306" y="520"/>
      <point x="277" y="544"/>
      <point x="243" y="544" type="curve" smooth="yes"/>
      <point x="209" y="544"/>
      <point x="181" y="520"/>
      <point x="181" y="483" type="curve" smooth="yes"/>
      <point x="181" y="448"/>
      <point x="209" y="423"/>
    </contour>
    <contour>
      <point x="460" y="277" type="line"/>
      <point x="460" y="329" type="line"/>
      <point x="26" y="329" type="line"/>
      <point x="26" y="277" type="line"/>
    </contour>
  </outline>
</glyph>
<glyph name="oslash" format="2">
  <advance width="504"/>
  <unicode hex="00F8"/>
  <anchor x="252" y="465" name="aboveLC"/>
  <outline>
    <contour>
      <point x="447" y="437" type="line"/>
      <point x="417" y="460" type="line"/>
      <point x="49" y="4" type="line"/>
      <point x="79" y="-18" type="line"/>
    </contour>
    <contour>
      <point x="252" y="-11" type="curve" smooth="yes"/>
      <point x="356" y="-11"/>
      <point x="461" y="63"/>
      <point x="461" y="216" type="curve" smooth="yes"/>
      <point x="461" y="368"/>
      <point x="356" y="448"/>
      <point x="252" y="448" type="curve" smooth="yes"/>
      <point x="146" y="448"/>
      <point x="42" y="368"/>
      <point x="42" y="216" type="curve" smooth="yes"/>
      <point x="42" y="63"/>
      <point x="146" y="-11"/>
    </contour>
    <contour>
      <point x="252" y="29" type="curve" smooth="yes"/>
      <point x="167" y="29"/>
      <point x="121" y="92"/>
      <point x="121" y="216" type="curve" smooth="yes"/>
      <point x="121" y="339"/>
      <point x="167" y="406"/>
      <point x="252" y="406" type="curve" smooth="yes"/>
      <point x="334" y="406"/>
      <point x="382" y="339"/>
      <point x="382" y="216" type="curve" smooth="yes"/>
      <point x="382" y="92"/>
      <point x="334" y="29"/>
    </contour>
  </outline>
</glyph>
<glyph name="ugrave" format="2">
  <advance width="535"/>
  <unicode hex="00F9"/>
  <anchor x="244" y="678" name="aboveLC"/>
  <anchor x="275" y="-20" name="belowLC"/>
  <anchor x="413" y="433" name="hornLC"/>
  <anchor x="453" y="0" name="ogonek"/>
  <outline>
    <contour>
      <point x="85" y="32"/>
      <point x="131" y="-11"/>
      <point x="205" y="-11" type="curve" smooth="yes"/>
      <point x="263" y="-11"/>
      <point x="323" y="15"/>
      <point x="375" y="81" type="curve"/>
      <point x="389" y="81" type="line"/>
      <point x="375" y="121" type="line"/>
      <point x="329" y="75"/>
      <point x="281" y="52"/>
      <point x="234" y="52" type="curve" smooth="yes"/>
      <point x="184" y="52"/>
      <point x="160" y="80"/>
      <point x="160" y="162" type="curve" smooth="yes"/>
      <point x="160" y="303" type="line"/>
      <point x="164" y="432" type="line"/>
      <point x="155" y="441" type="line"/>
      <point x="23" y="429" type="line"/>
      <point x="23" y="397" type="line"/>
      <point x="108" y="379" type="line"/>
      <point x="89" y="396" type="line"/>
      <point x="86" y="153" type="line" smooth="yes"/>
    </contour>
    <contour>
      <point x="379" y="-7" type="line"/>
      <point x="503" y="0" type="line"/>
      <point x="503" y="32" type="line"/>
      <point x="439" y="46" type="line"/>
      <point x="439" y="303" type="line"/>
      <point x="442" y="432" type="line"/>
      <point x="433" y="441" type="line"/>
      <point x="302" y="429" type="line"/>
      <point x="302" y="397" type="line"/>
      <point x="368" y="383" type="line"/>
      <point x="366" y="100" type="line"/>
    </contour>
    <contour>
      <point x="294" y="529" type="line"/>
      <point x="267" y="573"/>
      <point x="241" y="616"/>
      <point x="212" y="659" type="curve" smooth="yes"/>
      <point x="195" y="687"/>
      <point x="179" y="696"/>
      <point x="163" y="696" type="curve" smooth="yes"/>
      <point x="146" y="696"/>
      <point x="129" y="685"/>
      <point x="129" y="662" type="curve" smooth="yes"/>
      <point x="129" y="650"/>
      <point x="134" y="636"/>
      <point x="159" y="613" type="curve" smooth="yes"/>
      <point x="195" y="579"/>
      <point x="232" y="546"/>
      <point x="271" y="512" type="curve"/>
    </contour>
  </outline>
</glyph>
<glyph name="dotlessi" format="2">
  <advance width="273"/>
  <unicode hex="0131"/>
  <anchor x="135" y="465" name="aboveLC"/>
  <anchor x="136" y="-20" name="belowLC"/>
  <anchor x="172" y="0" name="ogonek"/>
  <outline>
    <contour>
      <point x="101" y="0" type="curve"/>
      <point x="180" y="0" type="line"/>
      <point x="178" y="41"/>
      <point x="177" y="136"/>
      <point x="177" y="193" type="curve" smooth="yes"/>
      <point x="177" y="314" type="line"/>
      <point x="180" y="438" type="line"/>
      <point x="166" y="448" type="line"/>
      <point x="27" y="392" type="line"/>
      <point x="27" y="360" type="line"/>
      <point x="101" y="352" type="line"/>
      <point x="103" y="315"/>
      <point x="103" y="287"/>
      <point x="103" y="236" type="curve" smooth="yes"/>
      <point x="103" y="193" type="line" smooth="yes"/>
      <point x="103" y="136"/>
      <point x="103" y="41"/>
    </contour>
    <contour>
      <point x="32" y="0" type="line"/>
      <point x="243" y="0" type="line"/>
      <point x="243" y="32" type="line"/>
      <point x="151" y="50" type="line"/>
      <point x="133" y="50" type="line"/>
      <point x="32" y="32" type="line"/>
    </contour>
  </outline>
</glyph>
<glyph name="OE" format="2">
  <advance width="862"/>
  <unicode hex="0152"/>
  <anchor x="475" y="635" name="aboveUC"/>
  <outline>
    <contour>
      <point x="140" y="308" type="curve" smooth="yes"/>
      <point x="140" y="449"/>
      <point x="199" y="584"/>
      <point x="357" y="584" type="curve" smooth="yes"/>
      <point x="400" y="584"/>
      <point x="425" y="579"/>
      <point x="468" y="560" type="curve"/>
      <point x="468" y="616" type="line"/>
      <point x="418" y="625"/>
      <point x="379" y="630"/>
      <point x="350" y="630" type="curve" smooth="yes"/>
      <point x="183" y="630"/>
      <point x="44" y="512"/>
      <point x="44" y="308" type="curve" smooth="yes"/>
      <point x="44" y="103"/>
      <point x="183" y="-13"/>
      <point x="350" y="-13" type="curve" smooth="yes"/>
      <point x="379" y="-13"/>
      <point x="418" y="-9"/>
      <point x="468" y="0" type="curve"/>
      <point x="468" y="56" type="line"/>
      <point x="425" y="36"/>
      <point x="401" y="32"/>
      <point x="356" y="32" type="curve" smooth="yes"/>
      <point x="199" y="32"/>
      <point x="140" y="166"/>
    </contour>
    <contour>
      <point x="436" y="285" type="line" smooth="yes"/>
      <point x="436" y="188"/>
      <point x="436" y="92"/>
      <point x="433" y="0" type="curve"/>
      <point x="521" y="0" type="line"/>
      <point x="518" y="94"/>
      <point x="518" y="190"/>
      <point x="518" y="296" type="curve" smooth="yes"/>
      <point x="518" y="331" type="line" smooth="yes"/>
      <point x="518" y="427"/>
      <point x="518" y="523"/>
      <point x="521" y="616" type="curve"/>
      <point x="433" y="616" type="line"/>
      <point x="436" y="521"/>
      <point x="436" y="425"/>
      <point x="436" y="331" type="curve" smooth="yes"/>
    </contour>
    <contour>
      <point x="655" y="308" type="line"/>
      <point x="668" y="206" type="line"/>
      <point x="710" y="206" type="line"/>
      <point x="710" y="424" type="line"/>
      <point x="668" y="424" type="line"/>
      <point x="655" y="326" type="line"/>
    </contour>
    <contour>
      <point x="684" y="335" type="line"/>
      <point x="477" y="335" type="line"/>
      <point x="477" y="293" type="line"/>
      <point x="684" y="293" type="line"/>
    </contour>
    <contour>
      <point x="760" y="452" type="line"/>
      <point x="812" y="452" type="line"/>
      <point x="805" y="616" type="line"/>
      <point x="477" y="616" type="line"/>
      <point x="477" y="570" type="line"/>
      <point x="740" y="570" type="line"/>
    </contour>
    <contour>
      <point x="779" y="163" type="line"/>
      <point x="759" y="46" type="line"/>
      <point x="477" y="46" type="line"/>
      <point x="477" y="0" type="line"/>
      <point x="824" y="0" type="line"/>
      <point x="830" y="163" type="line"/>
    </contour>
  </outline>
</glyph>
<glyph name="Ydieresis" format="2">
  <advance width="582"/>
  <unicode hex="0178"/>
  <anchor x="318" y="794" name="aboveUC"/>
  <anchor x="290" y="-20" name="belowLC"/>
  <outline>
    <contour>
      <point x="154" y="0" type="line"/>
      <point x="430" y="0" type="line"/>
      <point x="430" y="36" type="line"/>
      <point x="301" y="50" type="line"/>
      <point x="283" y="50" type="line"/>
      <point x="154" y="36" type="line"/>
    </contour>
    <contour>
      <point x="248" y="0" type="curve"/>
      <point x="336" y="0" type="line"/>
      <point x="333" y="81"/>
      <point x="333" y="171"/>
      <point x="333" y="276" type="curve"/>
      <point x="251" y="276" type="line"/>
      <point x="251" y="170"/>
      <point x="251" y="80"/>
    </contour>
    <contour>
      <point x="266" y="207" type="line"/>
      <point x="317" y="207" type="line"/>
      <point x="515" y="616" type="line"/>
      <point x="468" y="616" type="line"/>
      <point x="296" y="253" type="line"/>
      <point x="328" y="253" type="line"/>
      <point x="161" y="616" type="line"/>
      <point x="65" y="616" type="line"/>
    </contour>
    <contour>
      <point x="13" y="579" type="line"/>
      <point x="133" y="565" type="line"/>
      <point x="151" y="565" type="line"/>
      <point x="271" y="579" type="line"/>
      <point x="271" y="616" type="line"/>
      <point x="13" y="616" type="line"/>
    </contour>
    <contour>
      <point x="361" y="579" type="line"/>
      <point x="463" y="565" type="line"/>
      <point x="481" y="565" type="line"/>
      <point x="573" y="579" type="line"/>
      <point x="573" y="616" type="line"/>
      <point x="361" y="616" type="line"/>
    </contour>
    <contour>
      <point x="216" y="686" type="curve" smooth="yes"/>
      <point x="244" y="686"/>
      <point x="267" y="707"/>
      <point x="267" y="736" type="curve" smooth="yes"/>
      <point x="267" y="764"/>
      <point x="244" y="785"/>
      <point x="216" y="785" type="curve" smooth="yes"/>
      <point x="187" y="785"/>
      <point x="163" y="764"/>
      <point x="163" y="736" type="curve" smooth="yes"/>
      <point x="163" y="707"/>
      <point x="187" y="686"/>
    </contour>
    <contour>
      <point x="419" y="686" type="curve" smooth="yes"/>
      <point x="448" y="686"/>
      <point x="471" y="707"/>
      <point x="471" y="736" type="curve" smooth="yes"/>
      <point x="471" y="764"/>
      <point x="448" y="785"/>
      <point x="419" y="785" type="curve" smooth="yes"/>
      <point x="391" y="785"/>
      <point x="368" y="764"/>
      <point x="368" y="736" type="curve" smooth="yes"/>
      <point x="368" y="707"/>
      <point x="391" y="686"/>
    </contour>
  </outline>
</glyph>
<glyph name="colontriangularmod" format="2">
  <advance width="276"/>
  <unicode hex="02D0"/>
  <outline>
    <contour>
      <point x="66" y="441" type="line"/>
      <point x="134" y="323" type="line"/>
      <point x="141" y="323" type="line"/>
      <point x="209" y="441" type="line"/>
      <point x="206" y="448" type="line"/>
      <point x="69" y="448" type="line"/>
    </contour>
    <contour>
      <point x="66" y="6" type="line"/>
      <point x="69" y="0" type="line"/>
      <point x="206" y="0" type="line"/>
      <point x="209" y="6" type="line"/>
      <point x="141" y="124" type="line"/>
      <point x="134" y="124" type="line"/>
    </contour>
  </outline>
</glyph>
<glyph name="tilde" format="2">
  <advance width="368"/>
  <unicode hex="02DC"/>
  <anchor x="185" y="465" name="_aboveLC"/>
  <anchor x="185" y="666" name="aboveLC"/>
  <outline>
    <contour>
      <point x="36" y="539" type="curve"/>
      <point x="60" y="530" type="line"/>
      <point x="73" y="576"/>
      <point x="90" y="605"/>
      <point x="117" y="605" type="curve" smooth="yes"/>
      <point x="142" y="605"/>
      <point x="161" y="580"/>
      <point x="181" y="560" type="curve" smooth="yes"/>
      <point x="199" y="541"/>
      <point x="218" y="529"/>
      <point x="248" y="529" type="curve" smooth="yes"/>
      <point x="299" y="529"/>
      <point x="323" y="575"/>
      <point x="334" y="646" type="curve"/>
      <point x="310" y="655" type="line"/>
      <point x="298" y="609"/>
      <point x="281" y="580"/>
      <point x="253" y="580" type="curve" smooth="yes"/>
      <point x="229" y="580"/>
      <point x="212" y="603"/>
      <point x="190" y="625" type="curve" smooth="yes"/>
      <point x="172" y="643"/>
      <point x="153" y="656"/>
      <point x="123" y="656" type="curve" smooth="yes"/>
      <point x="72" y="656"/>
      <point x="46" y="609"/>
    </contour>
  </outline>
</glyph>
<glyph name="pi" format="2">
  <advance width="544"/>
  <unicode hex="03C0"/>
  <outline>
    <contour>
      <point x="97" y="-11" type="curve" smooth="yes"/>
      <point x="150" y="-11"/>
      <point x="183" y="18"/>
      <point x="189" y="96" type="curve" smooth="yes"/>
      <point x="197" y="195"/>
      <point x="197" y="301"/>
      <point x="198" y="406" type="curve"/>
      <point x="159" y="406" type="line"/>
      <point x="155" y="285"/>
      <point x="151" y="165"/>
      <point x="138" y="44" type="curve"/>
      <point x="169" y="86" type="line"/>
      <point x="130" y="85"/>
      <point x="92" y="80"/>
      <point x="62" y="74" type="curve"/>
      <point x="50" y="65"/>
      <point x="43" y="55"/>
      <point x="43" y="33" type="curve" smooth="yes"/>
      <point x="43" y="4"/>
      <point x="65" y="-11"/>
    </contour>
    <contour>
      <point x="24" y="356" type="line"/>
      <point x="172" y="377" type="line"/>
      <point x="376" y="377" type="line"/>
      <point x="518" y="372" type="line"/>
      <point x="515" y="436" type="line"/>
      <point x="192" y="436" type="line" smooth="yes"/>
      <point x="98" y="436"/>
      <point x="64" y="424"/>
      <point x="18" y="388" type="curve"/>
    </contour>
    <contour>
      <point x="430" y="-11" type="curve" smooth="yes"/>
      <point x="465" y="-11"/>
      <point x="488" y="3"/>
      <point x="510" y="35" type="curve"/>
      <point x="503" y="58" type="line"/>
      <point x="490" y="54"/>
      <point x="474" y="50"/>
      <point x="462" y="50" type="curve" smooth="yes"/>
      <point x="426" y="50"/>
      <point x="408" y="66"/>
      <point x="406" y="127" type="curve" smooth="yes"/>
      <point x="398" y="406" type="line"/>
      <point x="350" y="406" type="line"/>
      <point x="345" y="305"/>
      <point x="339" y="185"/>
      <point x="339" y="101" type="curve" smooth="yes"/>
      <point x="339" y="24"/>
      <point x="367" y="-11"/>
    </contour>
  </outline>
</glyph>
<glyph name="emdash" format="2">
  <advance width="745"/>
  <unicode hex="2014"/>
  <outline>
    <contour>
      <point x="36" y="201" type="line"/>
      <point x="708" y="201" type="line"/>
      <point x="708" y="260" type="line"/>
      <point x="36" y="260" type="line"/>
    </contour>
  </outline>
</glyph>
<glyph name="quoteleft" format="2">
  <advance width="263"/>
  <unicode hex="2018"/>
  <outline>
    <contour>
      <point x="167" y="588" type="line"/>
      <point x="93" y="560"/>
      <point x="58" y="505"/>
      <point x="58" y="439" type="curve" smooth="yes"/>
      <point x="58" y="386"/>
      <point x="80" y="358"/>
      <point x="119" y="358" type="curve" smooth="yes"/>
      <point x="150" y="358"/>
      <point x="173" y="382"/>
      <point x="173" y="413" type="curve" smooth="yes"/>
      <point x="173" y="444"/>
      <point x="154" y="464"/>
      <point x="131" y="464" type="curve" smooth="yes"/>
      <point x="108" y="464"/>
      <point x="83" y="446"/>
      <point x="83" y="423" type="curve"/>
      <point x="88" y="423"/>
      <point x="110" y="423"/>
      <point x="117" y="423" type="curve"/>
      <point x="112" y="432"/>
      <point x="107" y="445"/>
      <point x="107" y="471" type="curve" smooth="yes"/>
      <point x="107" y="513"/>
      <point x="141" y="536"/>
      <point x="175" y="553" type="curve"/>
    </contour>
  </outline>
</glyph>
<glyph name="quoteright" format="2">
  <advance width="250"/>
  <unicode hex="2019"/>
  <outline>
    <contour>
      <point x="96" y="361" type="line"/>
      <point x="159" y="389"/>
      <point x="201" y="459"/>
      <point x="201" y="515" type="curve" smooth="yes"/>
      <point x="201" y="558"/>
      <point x="177" y="588"/>
      <point x="138" y="588" type="curve" smooth="yes"/>
      <point x="102" y="588"/>
      <point x="78" y="560"/>
      <point x="78" y="529" type="curve" smooth="yes"/>
      <point x="78" y="493"/>
      <point x="106" y="478"/>
      <point x="129" y="478" type="curve" smooth="yes"/>
      <point x="152" y="478"/>
      <point x="177" y="496"/>
      <point x="177" y="519" type="curve"/>
      <point x="172" y="519"/>
      <point x="150" y="519"/>
      <point x="143" y="519" type="curve"/>
      <point x="148" y="510"/>
      <point x="148" y="507"/>
      <point x="148" y="481" type="curve" smooth="yes"/>
      <point x="148" y="454"/>
      <point x="118" y="406"/>
      <point x="90" y="389" type="curve"/>
    </contour>
  </outline>
</glyph>
<glyph name="quotesinglbase" format="2">
  <advance width="250"/>
  <unicode hex="201A"/>
  <outline>
    <contour>
      <point x="96" y="-125" type="line"/>
      <point x="159" y="-97"/>
      <point x="201" y="-27"/>
      <point x="201" y="29" type="curve" smooth="yes"/>
      <point x="201" y="72"/>
      <point x="177" y="102"/>
      <point x="138" y="102" type="curve" smooth="yes"/>
      <point x="102" y="102"/>
      <point x="78" y="74"/>
      <point x="78" y="43" type="curve" smooth="yes"/>
      <point x="78" y="7"/>
      <point x="106" y="-8"/>
      <point x="129" y="-8" type="curve" smooth="yes"/>
      <point x="152" y="-8"/>
      <point x="177" y="10"/>
      <point x="177" y="33" type="curve"/>
      <point x="172" y="33"/>
      <point x="150" y="33"/>
      <point x="143" y="33" type="curve"/>
      <point x="148" y="24"/>
      <point x="148" y="21"/>
      <point x="148" y="-5" type="curve" smooth="yes"/>
      <point x="148" y="-32"/>
      <point x="118" y="-80"/>
      <point x="90" y="-97" type="curve"/>
    </contour>
  </outline>
</glyph>
<glyph name="quotedblbase" format="2">
  <advance width="414"/>
  <unicode hex="201E"/>
  <outline>
    <contour>
      <point x="96" y="-125" type="line"/>
      <point x="159" y="-97"/>
      <point x="201" y="-27"/>
      <point x="201" y="29" type="curve" smooth="yes"/>
      <point x="201" y="72"/>
      <point x="177" y="102"/>
      <point x="138" y="102" type="curve" smooth="yes"/>
      <point x="102" y="102"/>
      <point x="78" y="74"/>
      <point x="78" y="43" type="curve" smooth="yes"/>
      <point x="78" y="7"/>
      <point x="106" y="-8"/>
      <point x="129" y="-8" type="curve" smooth="yes"/>
      <point x="152" y="-8"/>
      <point x="177" y="10"/>
      <point x="177" y="33" type="curve"/>
      <point x="172" y="33"/>
      <point x="150" y="33"/>
      <point x="143" y="33" type="curve"/>
      <point x="148" y="24"/>
      <point x="148" y="21"/>
      <point x="148" y="-5" type="curve" smooth="yes"/>
      <point x="148" y="-32"/>
      <point x="118" y="-80"/>
      <point x="90" y="-97" type="curve"/>
    </contour>
    <contour>
      <point x="260" y="-125" type="line"/>
      <point x="323" y="-97"/>
      <point x="365" y="-27"/>
      <point x="365" y="29" type="curve" smooth="yes"/>
      <point x="365" y="72"/>
      <point x="341" y="102"/>
      <point x="302" y="102" type="curve" smooth="yes"/>
      <point x="266" y="102"/>
      <point x="242" y="74"/>
      <point x="242" y="43" type="curve" smooth="yes"/>
      <point x="242" y="7"/>
      <point x="270" y="-8"/>
      <point x="293" y="-8" type="curve" smooth="yes"/>
      <point x="316" y="-8"/>
      <point x="341" y="10"/>
      <point x="341" y="33" type="curve"/>
      <point x="336" y="33"/>
      <point x="314" y="33"/>
      <point x="307" y="33" type="curve"/>
      <point x="312" y="24"/>
      <point x="312" y="21"/>
      <point x="312" y="-5" type="curve" smooth="yes"/>
      <point x="312" y="-32"/>
      <point x="282" y="-80"/>
      <point x="254" y="-97" type="curve"/>
    </contour>
  </outline>
</glyph>
<glyph name="daggerdbl" format="2">
  <advance width="469"/>
  <unicode hex="2021"/>
  <outline>
    <contour>
      <point x="36" y="133" type="curve" smooth="yes"/>
      <point x="36" y="109"/>
      <point x="48" y="94"/>
      <point x="79" y="94" type="curve" smooth="yes"/>
      <point x="103" y="94"/>
      <point x="141" y="103"/>
      <point x="171" y="108" type="curve" smooth="yes"/>
      <point x="234" y="121" type="line"/>
      <point x="234" y="145" type="line"/>
      <point x="171" y="158" type="line" smooth="yes"/>
      <point x="141" y="163"/>
      <point x="103" y="172"/>
      <point x="79" y="172" type="curve" smooth="yes"/>
      <point x="48" y="172"/>
      <point x="36" y="157"/>
    </contour>
    <contour>
      <point x="432" y="133" type="curve" smooth="yes"/>
      <point x="432" y="157"/>
      <point x="420" y="172"/>
      <point x="390" y="172" type="curve" smooth="yes"/>
      <point x="366" y="172"/>
      <point x="327" y="163"/>
      <point x="298" y="158" type="curve" smooth="yes"/>
      <point x="234" y="145" type="line"/>
      <point x="234" y="121" type="line"/>
      <point x="298" y="108" type="line" smooth="yes"/>
      <point x="327" y="103"/>
      <point x="366" y="94"/>
      <point x="390" y="94" type="curve" smooth="yes"/>
      <point x="420" y="94"/>
      <point x="432" y="109"/>
    </contour>
    <contour>
      <point x="234" y="-82" type="curve" smooth="yes"/>
      <point x="258" y="-82"/>
      <point x="273" y="-70"/>
      <point x="273" y="-40" type="curve" smooth="yes"/>
      <point x="273" y="-12"/>
      <point x="263" y="44"/>
      <point x="258" y="69" type="curve" smooth="yes"/>
      <point x="247" y="133" type="line"/>
      <point x="221" y="133" type="line"/>
      <point x="210" y="69" type="line" smooth="yes"/>
      <point x="206" y="44"/>
      <point x="195" y="-12"/>
      <point x="195" y="-40" type="curve" smooth="yes"/>
      <point x="195" y="-70"/>
      <point x="210" y="-82"/>
    </contour>
    <contour>
      <point x="432" y="443" type="curve" smooth="yes"/>
      <point x="432" y="467"/>
      <point x="420" y="482"/>
      <point x="390" y="482" type="curve" smooth="yes"/>
      <point x="366" y="482"/>
      <point x="327" y="473"/>
      <point x="298" y="468" type="curve" smooth="yes"/>
      <point x="234" y="455" type="line"/>
      <point x="234" y="431" type="line"/>
      <point x="298" y="418" type="line" smooth="yes"/>
      <point x="327" y="413"/>
      <point x="366" y="404"/>
      <point x="390" y="404" type="curve" smooth="yes"/>
      <point x="420" y="404"/>
      <point x="432" y="419"/>
    </contour>
    <contour>
      <point x="234" y="659" type="curve" smooth="yes"/>
      <point x="210" y="659"/>
      <point x="195" y="647"/>
      <point x="195" y="617" type="curve" smooth="yes"/>
      <point x="195" y="589"/>
      <point x="206" y="532"/>
      <point x="210" y="506" type="curve" smooth="yes"/>
      <point x="221" y="443" type="line"/>
      <point x="247" y="443" type="line"/>
      <point x="258" y="506" type="line" smooth="yes"/>
      <point x="263" y="532"/>
      <point x="273" y="589"/>
      <point x="273" y="617" type="curve" smooth="yes"/>
      <point x="273" y="647"/>
      <point x="258" y="659"/>
    </contour>
    <contour>
      <point x="36" y="443" type="curve" smooth="yes"/>
      <point x="36" y="419"/>
      <point x="48" y="404"/>
      <point x="79" y="404" type="curve" smooth="yes"/>
      <point x="103" y="404"/>
      <point x="141" y="413"/>
      <point x="171" y="418" type="curve" smooth="yes"/>
      <point x="234" y="431" type="line"/>
      <point x="234" y="455" type="line"/>
      <point x="171" y="468" type="line" smooth="yes"/>
      <point x="141" y="473"/>
      <point x="103" y="482"/>
      <point x="79" y="482" type="curve" smooth="yes"/>
      <point x="48" y="482"/>
      <point x="36" y="467"/>
    </contour>
    <contour>
      <point x="270" y="288" type="curve" smooth="yes"/>
      <point x="270" y="343"/>
      <point x="262" y="373"/>
      <point x="246" y="443" type="curve"/>
      <point x="222" y="443" type="line"/>
      <point x="207" y="373"/>
      <point x="198" y="342"/>
      <point x="198" y="288" type="curve" smooth="yes"/>
      <point x="198" y="235"/>
      <point x="207" y="204"/>
      <point x="222" y="133" type="curve"/>
      <point x="246" y="133" type="line"/>
      <point x="262" y="204"/>
      <point x="270" y="234"/>
    </contour>
  </outline>
</glyph>
<glyph name="uni2027" format="2">
  <advance width="276"/>
  <unicode hex="2027"/>
  <outline>
    <contour>
      <point x="138" y="153" type="curve" smooth="yes"/>
      <point x="173" y="153"/>
      <point x="202" y="183"/>
      <point x="202" y="218" type="curve" smooth="yes"/>
      <point x="202" y="253"/>
      <point x="173" y="283"/>
      <point x="138" y="283" type="curve" smooth="yes"/>
      <point x="102" y="283"/>
      <point x="73" y="253"/>
      <point x="73" y="218" type="curve" smooth="yes"/>
      <point x="73" y="183"/>
      <point x="102" y="153"/>
    </contour>
  </outline>
</glyph>
<glyph name="Euro" format="2">
  <advance width="457"/>
  <unicode hex="20AC"/>
  <outline>
    <contour>
      <point x="286" y="-11" type="curve" smooth="yes"/>
      <point x="371" y="-11"/>
      <point x="433" y="37"/>
      <point x="443" y="107" type="curve"/>
      <point x="439" y="127"/>
      <point x="424" y="138"/>
      <point x="403" y="138" type="curve" smooth="yes"/>
      <point x="381" y="138"/>
      <point x="361" y="125"/>
      <point x="347" y="77" type="curve" smooth="yes"/>
      <point x="327" y="7" type="line"/>
      <point x="385" y="46" type="line"/>
      <point x="350" y="32"/>
      <point x="323" y="29"/>
      <point x="306" y="29" type="curve" smooth="yes"/>
      <point x="203" y="29"/>
      <point x="138" y="123"/>
      <point x="138" y="296" type="curve" smooth="yes"/>
      <point x="138" y="471"/>
      <point x="206" y="565"/>
      <point x="308" y="565" type="curve" smooth="yes"/>
      <point x="323" y="565"/>
      <point x="358" y="563"/>
      <point x="398" y="546" type="curve"/>
      <point x="329" y="588" type="line"/>
      <point x="350" y="516" type="line" smooth="yes"/>
      <point x="364" y="469"/>
      <point x="380" y="455"/>
      <point x="402" y="455" type="curve" smooth="yes"/>
      <point x="422" y="455"/>
      <point x="442" y="466"/>
      <point x="448" y="488" type="curve"/>
      <point x="436" y="557"/>
      <point x="379" y="607"/>
      <point x="293" y="607" type="curve" smooth="yes"/>
      <point x="151" y="607"/>
      <point x="57" y="483"/>
      <point x="57" y="296" type="curve" smooth="yes"/>
      <point x="57" y="109"/>
      <point x="147" y="-11"/>
    </contour>
    <contour>
      <point x="10" y="339" type="line"/>
      <point x="352" y="339" type="line"/>
      <point x="352" y="385" type="line"/>
      <point x="10" y="385" type="line"/>
    </contour>
    <contour>
      <point x="10" y="207" type="line"/>
      <point x="352" y="207" type="line"/>
      <point x="352" y="253" type="line"/>
      <point x="10" y="253" type="line"/>
    </contour>
  </outline>
</glyph>
<glyph name="uniA4D4" format="2">
  <advance width="520"/>
  <unicode hex="A4D4"/>
  <outline>
    <contour>
      <point x="226" y="0" type="line"/>
      <point x="294" y="0" type="line"/>
      <point x="294" y="466" type="line"/>
      <point x="472" y="466" type="line"/>
      <point x="472" y="530" type="line"/>
      <point x="48" y="530" type="line"/>
      <point x="48" y="466" type="line"/>
      <point x="226" y="466" type="line"/>
    </contour>
  </outline>
</glyph>
<glyph name="uniA4D7" format="2">
  <advance width="492"/>
  <unicode hex="A4D7"/>
  <outline>
    <contour>
      <point x="82" y="116" type="line"/>
      <point x="442" y="530" type="line"/>
      <point x="352" y="530" type="line"/>
      <point x="98" y="239" type="line"/>
    </contour>
    <contour>
      <point x="60" y="0" type="line"/>
      <point x="128" y="0" type="line"/>
      <point x="128" y="530" type="line"/>
      <point x="60" y="530" type="line"/>
    </contour>
    <contour>
      <point x="364" y="0" type="line"/>
      <point x="448" y="0" type="line"/>
      <point x="219" y="334" type="line"/>
      <point x="179" y="270" type="line"/>
    </contour>
  </outline>
</glyph>
<glyph name="uniA4DA" format="2">
  <advance width="498"/>
  <unicode hex="A4DA"/>
  <outline>
    <contour>
      <point x="266" y="-8" type="curve" smooth="yes"/>
      <point x="375" y="-8"/>
      <point x="432" y="71"/>
      <point x="454" y="157" type="curve"/>
      <point x="388" y="174" type="line"/>
      <point x="373" y="110"/>
      <point x="326" y="56"/>
      <point x="266" y="56" type="curve" smooth="yes"/>
      <point x="171" y="56"/>
      <point x="120" y="144"/>
      <point x="120" y="265" type="curve" smooth="yes"/>
      <point x="120" y="386"/>
      <point x="171" y="474"/>
      <point x="266" y="474" type="curve" smooth="yes"/>
      <point x="326" y="474"/>
      <point x="369" y="428"/>
      <point x="384" y="382" type="curve"/>
      <point x="449" y="402" type="line"/>
      <point x="422" y="487"/>
      <point x="366" y="538"/>
      <point x="266" y="538" type="curve" smooth="yes"/>
      <point x="121" y="538"/>
      <point x="52" y="410"/>
      <point x="52" y="260" type="curve" smooth="yes"/>
      <point x="52" y="110"/>
      <point x="121" y="-8"/>
    </contour>
  </outline>
</glyph>
<glyph name="uniA4DD" format="2">
  <advance width="422"/>
  <unicode hex="A4DD"/>
  <outline>
    <contour>
      <point x="60" y="0" type="line"/>
      <point x="128" y="0" type="line"/>
      <point x="128" y="466" type="line"/>
      <point x="374" y="466" type="line"/>
      <point x="374" y="530" type="line"/>
      <point x="60" y="530" type="line"/>
    </contour>
    <contour>
      <point x="92" y="238" type="line"/>
      <point x="342" y="238" type="line"/>
      <point x="342" y="302" type="line"/>
      <point x="92" y="302" type="line"/>
    </contour>
  </outline>
</glyph>
<glyph name="uniA4E1" format="2">
  <advance width="412"/>
  <unicode hex="A4E1"/>
  <outline>
    <contour>
      <point x="60" y="0" type="line"/>
      <point x="364" y="0" type="line"/>
      <point x="364" y="64" type="line"/>
      <point x="128" y="64" type="line"/>
      <point x="128" y="530" type="line"/>
      <point x="60" y="530" type="line"/>
    </contour>
  </outline>
</glyph>
<glyph name="uniA4E2" format="2">
  <advance width="486"/>
  <unicode hex="A4E2"/>
  <outline>
    <contour>
      <point x="240" y="-8" type="curve" smooth="yes"/>
      <point x="343" y="-8"/>
      <point x="434" y="40"/>
      <point x="434" y="155" type="curve" smooth="yes"/>
      <point x="434" y="260"/>
      <point x="346" y="288"/>
      <point x="247" y="307" type="curve" smooth="yes"/>
      <point x="164" y="323"/>
      <point x="126" y="335"/>
      <point x="126" y="395" type="curve" smooth="yes"/>
      <point x="126" y="455"/>
      <point x="188" y="474"/>
      <point x="240" y="474" type="curve" smooth="yes"/>
      <point x="296" y="474"/>
      <point x="356" y="445"/>
      <point x="358" y="383" type="curve"/>
      <point x="426" y="390" type="line"/>
      <point x="422" y="480"/>
      <point x="348" y="538"/>
      <point x="240" y="538" type="curve" smooth="yes"/>
      <point x="137" y="538"/>
      <point x="58" y="490"/>
      <point x="58" y="390" type="curve" smooth="yes"/>
      <point x="58" y="295"/>
      <point x="131" y="263"/>
      <point x="231" y="245" type="curve" smooth="yes"/>
      <point x="326" y="228"/>
      <point x="366" y="212"/>
      <point x="366" y="150" type="curve" smooth="yes"/>
      <point x="366" y="74"/>
      <point x="293" y="56"/>
      <point x="240" y="56" type="curve" smooth="yes"/>
      <point x="168" y="56"/>
      <point x="123" y="87"/>
      <point x="113" y="166" type="curve"/>
      <point x="44" y="161" type="line"/>
      <point x="55" y="42"/>
      <point x="132" y="-8"/>
    </contour>
  </outline>
</glyph>
<glyph name="uniA4E5" format="2">
  <advance width="562"/>
  <unicode hex="A4E5"/>
  <outline>
    <contour>
      <point x="44" y="0" type="line"/>
      <point x="118" y="0" type="line"/>
      <point x="291" y="464" type="line"/>
      <point x="271" y="464" type="line"/>
      <point x="444" y="0" type="line"/>
      <point x="518" y="0" type="line"/>
      <point x="316" y="530" type="line"/>
      <point x="246" y="530" type="line"/>
    </contour>
  </outline>
</glyph>
<glyph name="uniA4ED" format="2">
  <advance width="482"/>
  <unicode hex="A4ED"/>
  <outline>
    <contour>
      <point x="242" y="0" type="curve" smooth="yes"/>
      <point x="422" y="0" type="line"/>
      <point x="422" y="530" type="line"/>
      <point x="238" y="530" type="line" smooth="yes"/>
      <point x="120" y="530"/>
      <point x="52" y="474"/>
      <point x="52" y="373" type="curve" smooth="yes"/>
      <point x="52" y="311"/>
      <point x="91" y="271"/>
      <point x="153" y="261" type="curve"/>
      <point x="153" y="279" type="line"/>
      <point x="94" y="254"/>
      <point x="62" y="205"/>
      <point x="62" y="148" type="curve" smooth="yes"/>
      <point x="62" y="57"/>
      <point x="119" y="0"/>
    </contour>
    <contour>
      <point x="354" y="40" type="line"/>
      <point x="390" y="64" type="line"/>
      <point x="236" y="64" type="line" smooth="yes"/>
      <point x="171" y="64"/>
      <point x="130" y="101"/>
      <point x="130" y="153" type="curve" smooth="yes"/>
      <point x="130" y="207"/>
      <point x="171" y="238"/>
      <point x="236" y="238" type="curve" smooth="yes"/>
      <point x="390" y="238" type="line"/>
      <point x="354" y="260" type="line"/>
    </contour>
    <contour>
      <point x="354" y="280" type="line"/>
      <point x="390" y="302" type="line"/>
      <point x="226" y="302" type="line" smooth="yes"/>
      <point x="166" y="302"/>
      <point x="120" y="328"/>
      <point x="120" y="378" type="curve" smooth="yes"/>
      <point x="120" y="432"/>
      <point x="166" y="466"/>
      <point x="226" y="466" type="curve" smooth="yes"/>
      <point x="390" y="466" type="line"/>
      <point x="354" y="490" type="line"/>
    </contour>
  </outline>
</glyph>
<glyph name="uniA4EF" format="2">
  <advance width="562"/>
  <unicode hex="A4EF"/>
  <outline>
    <contour>
      <point x="246" y="0" type="line"/>
      <point x="316" y="0" type="line"/>
      <point x="518" y="530" type="line"/>
      <point x="444" y="530" type="line"/>
      <point x="399" y="408" type="line"/>
      <point x="446" y="422" type="line"/>
      <point x="116" y="422" type="line"/>
      <point x="163" y="408" type="line"/>
      <point x="118" y="530" type="line"/>
      <point x="44" y="530" type="line"/>
    </contour>
    <contour>
      <point x="271" y="66" type="line"/>
      <point x="291" y="66" type="line"/>
      <point x="175" y="377" type="line"/>
      <point x="144" y="363" type="line"/>
      <point x="418" y="363" type="line"/>
      <point x="387" y="377" type="line"/>
    </contour>
  </outline>
</glyph>
<glyph name="uniA4F1" format="2">
  <advance width="442"/>
  <unicode hex="A4F1"/>
  <outline>
    <contour>
      <point x="48" y="0" type="line"/>
      <point x="382" y="0" type="line"/>
      <point x="382" y="530" type="line"/>
      <point x="58" y="530" type="line"/>
      <point x="58" y="466" type="line"/>
      <point x="314" y="466" type="line"/>
      <point x="314" y="64" type="line"/>
      <point x="48" y="64" type="line"/>
    </contour>
    <contour>
      <point x="98" y="238" type="line"/>
      <point x="350" y="238" type="line"/>
      <point x="350" y="302" type="line"/>
      <point x="98" y="302" type="line"/>
    </contour>
  </outline>
</glyph>
<glyph name="uniA4F5" format="2">
  <advance width="508"/>
  <unicode hex="A4F5"/>
  <outline>
    <contour>
      <point x="60" y="0" type="line"/>
      <point x="128" y="0" type="line"/>
      <point x="128" y="316" type="line" smooth="yes"/>
      <point x="128" y="414"/>
      <point x="180" y="474"/>
      <point x="254" y="474" type="curve" smooth="yes"/>
      <point x="328" y="474"/>
      <point x="380" y="414"/>
      <point x="380" y="316" type="curve" smooth="yes"/>
      <point x="380" y="0" type="line"/>
      <point x="448" y="0" type="line"/>
      <point x="448" y="304" type="line" smooth="yes"/>
      <point x="448" y="438"/>
      <point x="384" y="538"/>
      <point x="254" y="538" type="curve" smooth="yes"/>
      <point x="124" y="538"/>
      <point x="60" y="438"/>
      <point x="60" y="304" type="curve" smooth="yes"/>
    </contour>
  </outline>
</glyph>
<glyph name="uniA4F8" format="2">
  <advance width="232"/>
  <unicode hex="A4F8"/>
  <outline>
    <contour>
      <point x="124" y="-8" type="curve" smooth="yes"/>
      <point x="162" y="-8"/>
      <point x="188" y="18"/>
      <point x="188" y="56" type="curve" smooth="yes"/>
      <point x="188" y="94"/>
      <point x="162" y="120"/>
      <point x="124" y="120" type="curve" smooth="yes"/>
      <point x="86" y="120"/>
      <point x="60" y="94"/>
      <point x="60" y="56" type="curve" smooth="yes"/>
      <point x="60" y="18"/>
      <point x="86" y="-8"/>
    </contour>
  </outline>
</glyph>
<glyph name="uniA4FF" format="2">
  <advance width="457"/>
  <unicode hex="A4FF"/>
  <outline>
    <contour>
      <point x="67" y="290" type="line"/>
      <point x="405" y="290" type="line"/>
      <point x="405" y="354" type="line"/>
      <point x="67" y="354" type="line"/>
    </contour>
    <contour>
      <point x="67" y="146" type="line"/>
      <point x="405" y="146" type="line"/>
      <point x="405" y="210" type="line"/>
      <point x="67" y="210" type="line"/>
    </contour>
  </outline>
</glyph>
<glyph name="f_i" format="2">
  <advance width="566"/>
  <unicode hex="FB01"/>
  <outline>
    <contour>
      <point x="106" y="0" type="curve"/>
      <point x="185" y="0" type="line"/>
      <point x="184" y="64"/>
      <point x="183" y="128"/>
      <point x="183" y="193" type="curve" smooth="yes"/>
      <point x="183" y="400" type="line"/>
      <point x="175" y="512"/>
      <point x="187" y="575"/>
      <point x="223" y="610" type="curve" smooth="yes"/>
      <point x="252" y="639"/>
      <point x="294" y="655"/>
      <point x="345" y="655" type="curve"/>
      <point x="323" y="664" type="line"/>
      <point x="371" y="598" type="line" smooth="yes"/>
      <point x="388" y="575"/>
      <point x="405" y="563"/>
      <point x="428" y="563" type="curve" smooth="yes"/>
      <point x="452" y="563"/>
      <point x="469" y="577"/>
      <point x="473" y="597" type="curve"/>
      <point x="473" y="653"/>
      <point x="411" y="690"/>
      <point x="330" y="690" type="curve" smooth="yes"/>
      <point x="276" y="690"/>
      <point x="218" y="671"/>
      <point x="184" y="637" type="curve" smooth="yes"/>
      <point x="135" y="588"/>
      <point x="118" y="542"/>
      <point x="109" y="427" type="curve"/>
      <point x="136" y="441" type="line"/>
      <point x="32" y="427" type="line"/>
      <point x="32" y="388" type="line"/>
      <point x="109" y="388" type="line"/>
      <point x="109" y="193" type="line" smooth="yes"/>
      <point x="109" y="128"/>
      <point x="108" y="64"/>
    </contour>
    <contour>
      <point x="33" y="0" type="line"/>
      <point x="268" y="0" type="line"/>
      <point x="268" y="32" type="line"/>
      <point x="155" y="50" type="line"/>
      <point x="137" y="50" type="line"/>
      <point x="33" y="32" type="line"/>
    </contour>
    <contour>
      <point x="146" y="388" type="line"/>
      <point x="438" y="388" type="line"/>
      <point x="438" y="436" type="line"/>
      <point x="146" y="436" type="line"/>
    </contour>
    <contour>
      <point x="394" y="0" type="curve"/>
      <point x="473" y="0" type="line"/>
      <point x="471" y="41"/>
      <point x="471" y="136"/>
      <point x="471" y="193" type="curve" smooth="yes"/>
      <point x="471" y="319" type="line"/>
      <point x="473" y="438" type="line"/>
      <point x="460" y="448" type="line"/>
      <point x="321" y="424" type="line"/>
      <point x="321" y="391" type="line"/>
      <point x="394" y="388" type="line"/>
      <point x="396" y="341"/>
      <point x="397" y="303"/>
      <point x="397" y="239" type="curve" smooth="yes"/>
      <point x="397" y="193" type="line" smooth="yes"/>
      <point x="397" y="136"/>
      <point x="396" y="41"/>
    </contour>
    <contour>
      <point x="325" y="0" type="line"/>
      <point x="537" y="0" type="line"/>
      <point x="537" y="32" type="line"/>
      <point x="445" y="50" type="line"/>
      <point x="426" y="50" type="line"/>
      <point x="325" y="32" type="line"/>
    </contour>
  </outline>
</glyph>
<glyph name=".notdef" format="2">
  <advance width="1000"/>
  <outline>
    <contour>
      <point x="738" y="52" type="line"/>
      <point x="738" y="687" type="line"/>
      <point x="262" y="687" type="line"/>
      <point x="262" y="52" type="line"/>
    </contour>
    <contour>
      <point x="790" y="0" type="line"/>
      <point x="210" y="0" type="line"/>
      <point x="210" y="739" type="line"/>
      <point x="790" y="739" type="line"/>
    </contour>
  </outline>
</glyph>
